<?xml version="1.0" standalone="no"?>
<!DOCTYPE svg PUBLIC "-//W3C//DTD SVG 1.1//EN" "http://www.w3.org/Graphics/SVG/1.1/DTD/svg11.dtd" >
<svg xmlns="http://www.w3.org/2000/svg">
<metadata></metadata>
<defs>
<font id="star_nextregular" horiz-adv-x="1660" >
<font-face units-per-em="2048" ascent="1638" descent="-410" />
<missing-glyph horiz-adv-x="1500" />
<glyph horiz-adv-x="0" />
<glyph horiz-adv-x="682" />
<glyph unicode=" "  horiz-adv-x="1500" />
<glyph unicode="&#x09;" horiz-adv-x="1500" />
<glyph unicode="&#xa0;" horiz-adv-x="1500" />
<glyph unicode="!" horiz-adv-x="950" d="M0 86l124 300l328 4l-124 -302zM182 528l662 1604l330 -2l-664 -1600z" />
<glyph unicode="&#x22;" horiz-adv-x="840" d="M0 1708l180 426h220l-180 -426h-220zM398 1708l180 426h222l-182 -426h-220z" />
<glyph unicode="#" horiz-adv-x="1864" d="M0 386l160 200h256l210 300h-298l158 200h264l230 314h186l-208 -308h286l216 314h192l-216 -314h340l-172 -214h-306l-196 -286h326l-134 -206h-334l-204 -300l-188 6l206 294h-298l-210 -300h-192l218 300h-292zM610 592h292l210 300h-292z" />
<glyph unicode="$" horiz-adv-x="2036" d="M0 168l118 280h656l318 18q42 4 81 15t72 29t60 43t43 54t22 62t-3 68t-33 71t-68 72l-174 -414l-318 -18l256 610l-9 8t-23 21t-33 30t-38 35t-37 34t-33 30t-23 22l-8 8q-40 32 -68 88t-43 124t-14 145t18 152t51 144t88 121t129 83t171 31h316l66 136h306l-66 -136 h160l-156 -384h-164l-198 -474l-224 178l120 296h-24q-32 -2 -60 -10t-51 -20t-41 -28t-28 -36t-13 -41t3 -44t23 -46t45 -47l26 -24l224 -178l166 -126q76 -72 122 -148t66 -153t17 -154t-28 -150t-69 -141t-105 -127t-137 -108t-162 -83h-346l-70 -138h-322l72 138h-522z " />
<glyph unicode="%" horiz-adv-x="2886" d="M0 86l2256 2036l494 10l-2312 -2046h-438zM459 1629q-1 65 29 137q16 38 37 73t48 66t57 60t64 53t69 43t72 33t74 21t73 7q72 0 124 -28t79 -76t28 -113t-31 -139q-14 -36 -36 -71t-48 -67t-57 -60t-64 -52t-69 -44t-73 -33t-73 -20t-72 -7q-72 0 -124 28t-79 76 t-28 113zM615 1688q1 -38 17 -67t46 -45t72 -16t86 16t84 45t72 67t50 80q18 44 17 82t-17 67t-46 45t-72 16q-44 0 -88 -16t-83 -45t-71 -67t-50 -82q-18 -42 -17 -80zM1248 308q0 66 30 142q16 38 38 74t49 68t58 62t66 54t71 44t74 34t76 21t74 7q74 0 127 -28t81 -78 t29 -116t-31 -142q-16 -38 -38 -74t-49 -68t-58 -61t-65 -54t-71 -45t-75 -34t-76 -21t-74 -7q-74 0 -127 28t-81 78t-28 116zM1408 369q0 -39 17 -68t48 -46t75 -17q42 0 87 17t86 46t74 68t51 83q18 46 17 85t-17 68t-47 46t-75 17t-89 -17t-85 -46t-73 -68t-51 -85 q-18 -44 -18 -83z" />
<glyph unicode="&#x26;" horiz-adv-x="2484" d="M15 356q-3 78 35 168q36 88 103 177t167 177q98 88 254 181t368 187q-4 72 -3 131t9 107q8 46 20 91t30 87q48 120 131 211t199 153q182 98 364 98q86 0 146 -25t94 -75q32 -50 34 -113t-28 -137q-32 -76 -86 -143t-130 -123q-76 -58 -196 -121t-282 -131 q14 -160 35 -307t49 -275q108 76 201 149t163 139t111 125t47 109l10 124l-66 48h572l-198 -58q-20 -6 -49 -29t-69 -61t-90 -88l-110 -110q-120 -120 -245 -233t-255 -215q38 -72 79 -123t83 -79t92 -43t104 -15t105 14t99 40t91 66t79 92l38 -38q-70 -102 -146 -177 t-156 -125t-163 -75t-165 -25q-60 0 -115 16t-105 50q-48 32 -95 88t-87 134q-120 -82 -221 -138t-183 -88q-80 -30 -161 -46t-157 -16q-228 0 -310 128q-38 64 -41 142zM390 515q-6 -69 14 -127q22 -60 72 -90t128 -30q40 0 85 10t89 26q46 18 116 57t160 99 q-32 130 -53 227t-29 157q-10 60 -15 136t-7 166q-102 -48 -186 -105t-148 -117q-66 -60 -113 -126t-77 -136q-30 -78 -36 -147zM1238 1524q2 -64 6 -146q104 42 189 89t149 99t110 111t72 125q22 48 23 90t-19 76q-18 32 -53 49t-81 17q-62 0 -119 -22t-107 -64 q-98 -84 -132 -166q-14 -34 -23 -73t-13 -79q-4 -42 -2 -106z" />
<glyph unicode="'" horiz-adv-x="420" d="M0 1708l180 426h220l-180 -426h-220z" />
<glyph unicode="(" horiz-adv-x="1228" d="M17 688q3 76 16 155t38 161t61 162q34 76 76 151t93 148t110 142t125 133t139 121t153 107t165 92t177 74q-126 -110 -238 -227t-207 -241t-173 -253t-136 -261t-94 -267t-49 -269t-2 -267t51 -263q-66 38 -117 86t-87 106t-59 124t-34 138t-8 148z" />
<glyph unicode=")" horiz-adv-x="1212" d="M0 86q126 108 238 226t207 241t173 253t136 262t95 267t50 269t1 267t-52 263q66 -38 117 -87t87 -107t60 -123t34 -137t7 -148t-16 -156t-38 -161t-61 -161q-34 -76 -76 -152t-93 -148t-110 -141t-125 -133t-139 -122t-153 -108t-166 -92t-176 -72z" />
<glyph unicode="*" horiz-adv-x="1954" d="M0 92q168 222 316 422t278 376t244 329t213 280t184 229t158 178t135 123t116 65q46 14 78 8t55 -26t40 -49t33 -61q26 -126 44 -239t30 -219t18 -210t5 -210t-7 -217t-16 -232t-25 -256t-33 -289q-34 50 -72 99t-76 97t-77 92t-74 82t-65 70t-52 55t-34 35l-12 12 q-50 58 -102 97t-107 60t-112 26t-114 -3t-115 -28t-115 -49t-112 -65t-108 -76t-102 -83t-95 -86t-86 -85t-75 -80t-63 -69t-48 -54t-33 -36t-17 -13z" />
<glyph unicode="+" horiz-adv-x="1514" d="M0 528l228 294h420l290 416h284l-284 -420h504l-228 -290h-470l-298 -442h-284l310 442h-472z" />
<glyph unicode="," horiz-adv-x="420" d="M0 0l180 426h220l-180 -426h-220z" />
<glyph unicode="-" horiz-adv-x="1514" d="M0 528l228 294h171h135h105h79t59 -1t44 -1h32h26h25t28 -1t36 -1h49h68h90h117h150l-228 -290h-181h-145h-113h-85h-62h-45h-32h-24h-22h-25h-32h-44h-62h-85h-112h-145z" />
<glyph unicode="." horiz-adv-x="478" d="M30 206q2 36 20 76q20 40 52 76t70 63t80 42t82 15t68 -15t41 -42t12 -63t-21 -76q-18 -40 -50 -76t-71 -63t-81 -42t-82 -15q-38 0 -66 15t-42 42t-12 63z" />
<glyph unicode="/" horiz-adv-x="2886" d="M0 86l2256 2036l494 10l-2312 -2046h-438z" />
<glyph unicode="0" horiz-adv-x="1760" d="M-12 456q4 52 18 109t38 115l278 686h168h166l-220 -594q-10 -40 -19 -75t-16 -63t-11 -51t-4 -42t4 -35t13 -29t24 -24t37 -23h23t16 -1t12 -3t9 -3l8 -2t11 -2t17 -1t24 -2q42 8 75 18t60 23t47 30t38 39t34 48t33 58t35 69t42 79l290 622q32 84 40 142t-5 97t-45 64 t-80 41q-26 2 -45 3t-37 1t-36 -1t-42 -3q-12 0 -19 -1t-10 -1t-4 -1t-1 -2v-3t-3 -6t-8 -8t-17 -8l-462 -2q16 24 34 55t40 65t48 70t60 69t75 62t93 51t114 35t138 13h278q60 0 112 -13t94 -36t75 -56t55 -74t33 -88t11 -99t-12 -108t-38 -114l-394 -908q-24 -56 -56 -110 t-68 -104t-78 -94t-89 -82t-98 -68t-106 -51t-112 -32t-119 -11h-242q-60 0 -108 13t-86 36t-65 56t-42 75t-21 90t-2 100z" />
<glyph unicode="1" horiz-adv-x="980" d="M0 86l536 1274h426l-530 -1274h-432zM526 1750l320 382h436l-142 -388z" />
<glyph unicode="2" horiz-adv-x="1390" d="M0 146l980 1220h528l-654 -850h802l-176 -430h-1420zM366 1752q40 66 99 127t130 110t149 84t152 51q26 8 60 14t75 11t87 7t93 3t94 0t92 -5t86 -10t75 -14q20 -6 40 -13t36 -16t29 -21t21 -31t10 -45t-2 -62t-14 -83t-30 -107l-476 -2q20 18 20 31t-14 22t-41 14t-61 5 t-71 -4t-74 -13t-70 -22t-57 -31h-438z" />
<glyph unicode="3" horiz-adv-x="1460" d="M0 138l160 384l530 -2q10 2 27 18t38 43t42 63t40 74t34 76t21 72t3 60t-19 38l-528 2l150 350h536q14 2 33 19t40 46t40 65t36 75t28 77t14 69t-3 53t-26 30h-526l158 384l766 -2q36 0 62 -11t43 -33t26 -52t11 -67t-3 -79t-14 -88t-23 -95t-32 -98t-38 -98t-41 -95 t-43 -89t-43 -80t-41 -68t-38 -53t-33 -34t-25 -12l-156 -12q42 -16 72 -32t47 -39t23 -55t-1 -77t-26 -106t-51 -143t-76 -187t-100 -239q-14 -30 -38 -50t-53 -31t-60 -16t-59 -7h-814q-14 6 -24 12t-18 12t-15 12t-13 16z" />
<glyph unicode="4" horiz-adv-x="1380" d="M0 960l174 406h730l314 768h400l46 -58l-306 -710h208l-158 -406l-214 2l-352 -876h-468l360 876zM328 1750l160 384l328 -2l-146 -382h-342z" />
<glyph unicode="5" horiz-adv-x="1450" d="M0 138l160 384l530 -2q10 2 27 18t38 43t42 63t40 74t34 76t21 72t3 60t-19 38l-528 2l150 350l782 -6q42 -16 68 -43t38 -67t11 -94t-14 -121t-39 -150t-63 -182t-84 -214t-103 -249q-14 -30 -38 -50t-53 -31t-60 -16t-59 -7h-814q-14 6 -24 12t-18 12t-15 12t-13 16z M662 1750l152 382h912l-154 -382h-910z" />
<glyph unicode="6" horiz-adv-x="1380" d="M85 267q3 37 21 85l392 964h362l-28 -100l434 -4q40 -14 67 -37t41 -57t14 -78t-12 -103t-37 -133t-60 -166t-82 -203t-103 -245q-14 -30 -38 -50t-53 -31t-60 -16t-59 -7l-514 -4q-22 -2 -50 -2t-56 4t-56 12t-52 22t-42 34t-25 49t-4 66zM481 474q-1 -18 3 -22h314 q18 2 38 19t41 44t40 61t35 70t27 71t15 65t-2 50t-22 26l-316 8q-20 -10 -39 -32t-36 -51t-32 -64t-27 -70t-20 -69t-13 -61t-6 -45zM662 1750q24 70 43 125t40 95t49 67t72 44t109 26t160 12t225 2t302 -3l-134 -322l-490 6l-50 -50z" />
<glyph unicode="7" horiz-adv-x="1360" d="M298 1750l152 384h1184l-166 -384h-1170zM354 86l530 1278h440l-534 -1278h-436z" />
<glyph unicode="8" horiz-adv-x="1590" d="M28 182q12 100 33 196t49 183t63 165t73 143t78 117t80 89t78 56t70 19q-24 26 -42 50t-28 52t-12 64t4 82l728 -2q34 0 68 16t64 44t55 63t42 71t25 70t3 60t-24 41t-55 13h-818q0 12 5 28t13 33t18 35t22 36t26 36t27 34t27 30t26 24q2 6 11 13t22 14t29 15t34 15 t37 14t37 12t34 8t30 3h696q10 -2 24 -5t30 -6t33 -8t34 -12t32 -15t26 -17t17 -21t4 -26q-8 -100 -25 -189t-41 -167t-54 -145t-64 -123t-71 -99t-74 -75t-75 -52t-72 -28q34 -10 58 -38t36 -72t14 -101t-8 -125t-30 -142t-52 -154t-75 -161t-97 -161q-14 -32 -38 -51 t-52 -31t-59 -17t-61 -7l-880 2q-36 2 -56 9t-30 20t-14 31t-8 44zM466 497q-4 -37 5 -61t35 -26h390q22 -2 51 19t59 56t57 80t47 92t29 92t2 81t-33 58t-78 22l-270 6q-28 2 -60 -18t-64 -55t-61 -80t-52 -92t-38 -92t-19 -82z" />
<glyph unicode="9" horiz-adv-x="1590" d="M24 249v27t2 25t6 26t9 28t12 32t19 39l874 4q28 4 52 26t43 55t32 74t20 84t8 84t-5 75t-21 58t-37 30h-480q-42 2 -73 14t-50 34t-29 52t-12 65t3 75t16 81t26 83t35 82l386 -6q-6 -18 -12 -37t-6 -35t7 -26t25 -10h284q36 0 72 21t69 56t62 80t50 91t32 90t9 78 t-19 53t-53 17h-332q-18 0 -27 -1t-17 -4t-16 -8t-20 -13h-358q6 16 15 36t18 42t19 45l20 46t22 44t24 39t25 31t25 21q6 10 25 22t45 23t56 19t56 8h696q10 -2 23 -5t28 -6t32 -8t33 -12t30 -15t26 -17t19 -21t9 -26q2 -18 -2 -52t-13 -80t-24 -104t-33 -124t-40 -138 t-47 -149t-52 -157t-55 -160t-56 -158t-56 -152t-55 -142t-51 -128t-47 -110t-41 -87t-33 -61t-25 -30q-14 -32 -38 -51t-52 -31t-59 -17t-61 -7l-880 2q-36 2 -56 9t-30 20t-14 31t-8 44q0 20 -2 36t-2 31z" />
<glyph unicode=":" horiz-adv-x="612" d="M30 206q2 36 20 76q20 40 52 76t70 63t80 42t82 15t68 -15t41 -42t12 -63t-21 -76q-18 -40 -50 -76t-71 -63t-81 -42t-82 -15q-38 0 -66 15t-42 42t-12 63zM158 686q2 36 20 78q20 40 52 76t70 62t80 42t82 16t68 -16t41 -42t12 -62t-21 -76q-18 -42 -50 -78t-70 -62 t-81 -42t-81 -16q-40 0 -68 16t-42 42t-12 62z" />
<glyph unicode=";" horiz-adv-x="610" d="M0 0l180 426h220l-180 -426h-220zM156 591q2 35 20 77q20 40 52 76t70 62t80 42t82 16t68 -16t41 -42t12 -62t-21 -76q-18 -42 -50 -77t-71 -62t-81 -42t-80 -15q-40 0 -68 15t-42 42t-12 62z" />
<glyph unicode="&#x3c;" horiz-adv-x="632" d="M0 942l602 420l-374 -420l10 -426z" />
<glyph unicode="=" horiz-adv-x="1878" d="M0 422l228 294h171h135h105t79 -1t59 -1h44h32h26t25 -1t28 -1h36h49h68h90h117h150l-228 -290h-181h-145h-113h-85h-62h-45h-32h-24h-22h-25h-32h-44h-62h-85h-112h-145zM348 1028l228 296q96 0 171 -1t135 -1h105h79h59h44t33 -1t26 -1h24h28h37t49 -1t67 -1h90h117 h150l-226 -290h-183h-145h-113h-85h-62h-45h-32h-24h-22h-24h-32h-45h-62h-85h-112h-145z" />
<glyph unicode="&#x3e;" horiz-adv-x="632" d="M0 516l374 420l-8 426l236 -426z" />
<glyph unicode="?" horiz-adv-x="2152" d="M297 228q-1 42 19 90q20 50 56 92t80 74t93 50t97 18q46 0 80 -18t52 -50t18 -74t-20 -92q-20 -48 -55 -90t-79 -74t-93 -50t-97 -18q-46 0 -80 18t-52 50t-19 74zM484 710l226 528q10 18 19 31t16 24t15 19t16 14t18 10t24 8t31 8t39 8h368q10 4 26 23t34 46t38 60 t36 67t28 67t16 58t-4 42t-28 19h-746l154 388l1136 4l104 -114q-36 -88 -73 -184t-75 -191t-75 -186t-74 -173t-72 -152t-67 -121t-61 -81t-53 -34l-552 -6l-116 -268l-266 6q-12 6 -24 16t-23 21t-20 23z" />
<glyph unicode="@" horiz-adv-x="3590" d="M-375 1357q1 7 7 14t18 9q106 30 216 53t221 39t222 25t221 11q22 10 49 16t55 2q12 2 26 2t30 -1t32 -1t32 2q30 8 58 10t54 1t52 -5t53 -9t54 -11t55 -10t59 -7t65 -3q36 -12 76 -22t82 -19t85 -20t87 -21t87 -22t84 -26t80 -29t73 -33l86 -64q88 -8 175 -11t175 -4 t176 -1t177 1t177 0t176 -4t177 -10t177 -19q16 -4 27 -8t17 -10t10 -15t8 -23t4 -30t-3 -32t-10 -29t-19 -21q-26 -6 -51 -8t-49 -4t-50 -3t-52 -5l-12 -4t-12 -5t-9 -8t-3 -11l28 -42q26 -34 40 -53t20 -34t6 -29t-2 -38q-54 -22 -113 -27t-119 -4t-122 5t-122 2 q-42 10 -81 11t-77 -3t-75 -13t-73 -20l-72 -22t-72 -20t-73 -16t-75 -7l-266 28q-34 6 -62 12t-52 13t-43 16t-36 20t-34 26t-35 33t-37 41t-43 49l-62 134q-6 18 -19 42t-29 46t-34 43t-38 35q-62 -2 -126 -4t-129 -2t-130 1t-127 3q-80 4 -162 7t-168 7q-106 4 -221 18 t-229 32t-227 38t-217 34q-10 2 -14 8t-3 13zM2078 1064q2 -2 7 -5t12 -8t14 -9t14 -9t13 -8t10 -6t4 -5q20 -8 44 -17t50 -18t53 -18t55 -18t56 -15t56 -10t53 -5t49 3l-1 2t-3 5l-4 6t-2 7q-18 18 -42 34t-52 29t-60 23t-65 18t-68 13t-68 9t-65 5t-60 1q-2 -2 0 -4z" />
<glyph unicode="A" horiz-adv-x="1750" d="M-282 90l846 1274h462l-504 -728l44 -84h412l364 1194l-784 6l160 382l1026 -4l106 -106v-156l-466 -1782z" />
<glyph unicode="B" horiz-adv-x="1840" d="M0 138l512 1228h882q16 0 34 16t37 41t38 57t33 66t24 67t13 61t-5 48t-26 28h-872l158 382h1112q36 0 62 -11t43 -33t26 -52t11 -67q1 -11 1 -22q0 -27 -4 -57q-5 -42 -15 -88t-24 -95t-31 -98t-37 -98t-41 -95t-43 -89t-43 -80t-42 -68t-38 -53t-32 -34t-25 -12 l-156 -12q42 -16 71 -32t47 -39t23 -55q2 -13 2 -29q0 -22 -4 -48q-7 -45 -26 -106t-50 -143t-75 -187t-102 -239q-14 -30 -37 -50t-52 -31t-60 -16t-59 -7h-1160q-14 6 -24 12t-18 11t-15 12t-13 17zM606 502h412q18 0 38 17t41 45t41 62t36 70t27 71t14 65q1 11 1 21 q0 16 -3 29q-5 20 -23 26l-414 6z" />
<glyph unicode="C" horiz-adv-x="1520" d="M4 169q-1 11 -1 24q0 23 4 52q7 45 28 112t55 158t84 214t116 280t150 357h394q-94 -226 -165 -395t-113 -281t-56 -170q-6 -24 -6 -39q0 -22 12 -27l648 2q8 -2 11 -9t4 -14t0 -15t-1 -12q-22 -50 -39 -91t-31 -74t-26 -57t-22 -41t-19 -28t-18 -18t-19 -9t-22 -2h-908 q-24 14 -40 33t-20 50zM604 1750q40 92 64 149t38 90t18 45l4 12q18 18 33 32t32 25t37 19t44 12h828q12 0 22 -7t17 -16t11 -21q3 -8 3 -14q0 -3 -1 -6q-34 -82 -59 -139t-45 -93t-39 -50t-39 -10l-578 2l10 -28z" />
<glyph unicode="D" horiz-adv-x="1800" d="M0 92l538 1274h394l-370 -896l364 20q48 8 93 26t89 46t86 63t80 77t73 90t65 98t55 104t45 108t32 108t18 106q4 39 4 76v25q-2 49 -13 93t-31 83t-50 70t-71 53t-93 34h-620l164 384h560q100 -12 180 -43t142 -78t106 -108t72 -133t40 -154q10 -70 10 -144v-25 q-2 -87 -17 -178t-43 -183t-66 -182t-87 -176t-106 -165t-122 -149t-137 -128t-149 -101t-158 -69t-167 -32z" />
<glyph unicode="E" horiz-adv-x="1580" d="M0 144l514 1222h1064l-162 -384l-636 4l-194 -472l636 -4l-178 -424h-994zM672 1750l152 384l1064 -2l-154 -382h-1062z" />
<glyph unicode="F" horiz-adv-x="1580" d="M0 144l516 1222h1072l-172 -384l-636 4l-370 -900h-360zM664 1748l160 386l1064 -2l-152 -384h-1072z" />
<glyph unicode="G" horiz-adv-x="1890" d="M4 315q0 55 20 130t62 175l316 746h496l-350 -832l534 -2q22 0 42 14t38 38t32 54t23 61t12 62t0 55t-14 39t-31 15l-206 8l120 284h626l-194 -470q-42 -102 -75 -183t-60 -143t-51 -107t-46 -76t-46 -50t-51 -29t-59 -13t-74 -3l-632 -2q-54 4 -107 7t-101 10t-89 21 t-71 37t-47 61t-17 93zM550 1750q34 78 64 147t61 120t63 82t68 35h1322l-156 -378l-924 2l-10 -8h-488z" />
<glyph unicode="H" horiz-adv-x="1990" d="M0 164l500 1202h952l314 768h398l48 -58l-824 -1990h-468l360 876h-480l-366 -876h-376zM656 1748l158 386l470 -2l-156 -382z" />
<glyph unicode="I" horiz-adv-x="1000" d="M0 86l536 1274h426l-530 -1274h-432zM690 1742l156 390h436l-152 -390h-440z" />
<glyph unicode="J" horiz-adv-x="1220" d="M0 86l158 384h210l380 890h432l-384 -922q-24 -64 -50 -113t-54 -85t-59 -61t-64 -42t-68 -27t-73 -15t-77 -7t-81 -2h-270zM900 1742l160 392h434l-154 -392h-440z" />
<glyph unicode="K" horiz-adv-x="2054" d="M0 92l534 1268h730q34 -2 65 -20t62 -54t64 -90t69 -129t78 -172t92 -218t109 -267t131 -318h-420l-422 844l-278 -8l-346 -842zM694 1742l152 390l362 -12l-6 -104q18 18 35 33t42 25t60 17t88 11t128 6t180 3t242 1t315 2l-358 -382z" />
<glyph unicode="L" horiz-adv-x="1720" d="M0 86l520 1276h444l-354 -862h968l-174 -414h-1404zM678 1734l166 398h436l-160 -398h-442z" />
<glyph unicode="M" horiz-adv-x="2940" d="M0 86l530 1274h464l-542 -1274h-452zM680 1738l166 394l2044 -2q20 0 42 -1t44 -4t42 -10t38 -17t33 -25t26 -34t16 -44q4 -18 4 -39q0 -9 -1 -18l-768 -1852h-472l664 1604q6 20 -4 34t-30 24t-44 14t-48 4l-344 2l-20 -26h-482q6 14 -20 18t-84 4h-328l-12 -22zM926 86 l540 1274h456l-538 -1274h-458z" />
<glyph unicode="N" horiz-adv-x="1930" d="M0 86l530 1272h468l-526 -1270zM680 1740l164 390h1100q15 1 29 1h15q22 -1 43 -5t42 -11t39 -17t33 -24t25 -34t15 -45q4 -18 4 -39q0 -9 -1 -18l-768 -1852h-494l656 1584q2 34 1 51t-11 26t-32 10t-62 3l-322 -2l-8 -18h-468z" />
<glyph unicode="O" horiz-adv-x="1600" d="M3 455q-1 12 -1 25q0 41 8 85q10 57 34 115l278 686h168h166l-220 -594q-10 -40 -15 -75t-4 -63t7 -50t16 -41t24 -33t31 -27t36 -24t41 -21q56 -2 113 -4t113 -4q50 6 89 17t69 26t53 35t41 42t31 46t24 49t21 50t22 49l262 650q16 42 23 77t7 66t-6 56t-18 46t-29 38 t-37 31t-43 25t-47 19q-26 0 -49 2t-45 2t-44 -1t-46 -5q-26 0 -44 -1t-34 -5t-33 -11t-39 -17l-462 -2q16 24 38 55t50 66t62 71t76 70t91 64t106 52t124 35t143 13h302q60 0 115 -13t101 -36t83 -57t64 -75t43 -89t21 -102q2 -19 2 -39q0 -36 -6 -73q-9 -58 -31 -118 l-326 -858q-22 -60 -55 -117t-75 -110t-91 -100t-103 -87t-112 -73t-118 -55t-122 -34t-122 -12h-304q-60 0 -114 12t-99 35t-82 56t-63 73t-41 87t-18 100z" />
<glyph unicode="P" horiz-adv-x="1800" d="M0 166l496 1194h760q10 4 26 23t34 46t38 60t36 67t28 67t16 58t-4 42t-28 19h-746l154 388l1136 4l104 -114q-36 -88 -73 -184t-75 -191t-75 -186t-74 -173t-72 -152t-67 -121t-61 -81t-53 -34h-732l-336 -812h-350q-12 6 -24 16t-23 21t-20 22t-15 21z" />
<glyph unicode="Q" horiz-adv-x="1600" d="M3 455q-1 12 -1 25q0 41 8 85q10 57 34 115l278 686h168h166l-220 -594q-10 -40 -15 -75t-4 -63t7 -50t16 -41t24 -33t31 -27t36 -24t41 -21q56 -2 113 -4t113 -4q22 2 40 8t33 12t29 14t28 14l-96 136l214 160l70 -106q8 18 16 38t16 38l262 650q16 42 23 77t7 66t-6 56 t-18 46t-29 38t-37 31t-43 25t-47 19q-26 0 -49 2t-45 2t-44 -1t-46 -5q-26 0 -44 -1t-34 -5t-33 -11t-39 -17l-462 -2q16 24 38 55t50 66t62 71t76 70t91 64t106 52t124 35t143 13h302q60 0 115 -13t101 -36t83 -57t64 -75t43 -89t21 -102q2 -19 2 -39q0 -36 -6 -73 q-9 -58 -31 -118l-326 -858q-14 -40 -37 -81t-50 -82t-58 -79t-61 -72l88 -120l-220 -150l-78 100q-94 -56 -189 -80t-193 -24h-304q-60 0 -114 12t-99 35t-82 56t-63 73t-41 87t-18 100z" />
<glyph unicode="R" horiz-adv-x="1780" d="M0 168l504 1196h808q12 -2 28 14t35 42t38 60t36 70t30 71t17 62t0 45t-22 20h-810l150 386h1216l98 -104q-4 -12 -9 -31t-13 -44t-18 -56t-22 -66t-26 -73t-30 -78t-32 -81t-34 -81t-37 -80t-38 -77t-39 -71t-39 -63t-39 -53t-39 -41t-37 -27t-36 -12l-158 -18 q50 -18 86 -36t58 -42t30 -59q4 -19 4 -42q0 -20 -3 -43q-7 -50 -27 -119t-55 -163t-85 -214t-112 -274h-544l344 824h-402l-346 -824h-366q-12 6 -22 17t-17 22t-13 23t-12 20z" />
<glyph unicode="S" horiz-adv-x="1670" d="M-140 168l118 280h788h23q46 0 92 6q57 8 109 25t96 42t75 56t47 68q13 30 13 62q0 8 -1 16q-4 41 -31 84t-79 89q-40 28 -72 52t-60 44t-53 39t-48 37t-45 36t-45 40t-49 47t-54 55q-40 32 -69 88t-43 124t-14 145t17 152t52 144t89 121t129 83t171 31h782l-156 -384 h-490q-32 -2 -60 -10t-51 -20t-41 -28t-28 -36t-13 -41t3 -44t23 -46t45 -47l416 -328q76 -72 122 -148t66 -153q17 -67 18 -134q0 -10 -1 -20q-3 -77 -28 -150t-69 -141t-105 -127t-137 -108t-162 -83h-1186z" />
<glyph unicode="T" horiz-adv-x="1270" d="M0 86l530 1278h440l-534 -1278h-436zM298 1750l152 384h1184l-166 -384h-1170z" />
<glyph unicode="U" horiz-adv-x="1930" d="M8 284l454 1082h442q-72 -170 -125 -298t-91 -223t-61 -160t-33 -108q-7 -31 -7 -51q0 -8 1 -15q4 -23 18 -33t38 -13t58 -3h308l690 1672h512l-854 -2048l-1100 2q-22 0 -44 1t-44 5t-43 11t-40 17t-34 25t-25 35t-15 45t-5 57zM630 1750l150 384h438l-146 -384h-442z " />
<glyph unicode="V" horiz-adv-x="1680" d="M0 2134h450l62 -384h-434zM136 1366h432l48 -352l884 1116l442 4l-1640 -2048z" />
<glyph unicode="W" horiz-adv-x="2240" d="M0 154l508 1212l386 2l-334 -782l656 634l336 -752l694 1664h362l50 -64l-824 -1980l-432 -2l-240 602l-648 -602l-456 2zM682 1750l152 382h370l-164 -384z" />
<glyph unicode="X" horiz-adv-x="2440" d="M0 86l1116 1040l-116 240h360l838 768h458l-1054 -964l484 -1084h-506l-330 744l-806 -744h-444zM656 2126h506l168 -376h-482z" />
<glyph unicode="Y" horiz-adv-x="1770" d="M0 2132h514l174 -382h-510zM42 86l424 1030l-108 250h344l844 768h476l-1082 -1008l-430 -1040h-468z" />
<glyph unicode="Z" horiz-adv-x="1540" d="M0 146l980 1220h528l-654 -850h802l-176 -430h-1420zM366 1752l156 382h1280l-154 -382h-1282z" />
<glyph unicode="[" horiz-adv-x="1630" d="M0 86l856 2048h698l-148 -354h-306l-538 -1284h328l-172 -410h-718z" />
<glyph unicode="\" horiz-adv-x="1084" d="M0 2132l486 -10l548 -2036h-440z" />
<glyph unicode="]" horiz-adv-x="1630" d="M0 86l148 352h306l538 1286h-328l172 410h718l-858 -2048h-696z" />
<glyph unicode="^" horiz-adv-x="888" d="M0 1750l608 420l238 -420l-336 192z" />
<glyph unicode="_" horiz-adv-x="1514" d="M0 86l228 294h171h135h105h79t59 -1t44 -1h32h26h25t28 -1t36 -1h49h68h90h117h150l-228 -290h-181h-145h-113h-85h-62h-45h-32h-24h-22h-25h-32h-44h-62h-85h-112h-145z" />
<glyph unicode="`" horiz-adv-x="486" d="M0 2020l212 150l252 -420z" />
<glyph unicode="a" horiz-adv-x="1350" d="M-282 88l688 1038h374l-408 -594l36 -68h334l296 972l-638 4l132 310l832 -4l86 -86v-126l-378 -1448z" />
<glyph unicode="b" horiz-adv-x="1440" d="M0 128l416 998h718q12 2 27 14t30 32t30 46t27 54t20 55t10 50t-4 39t-20 22h-710l128 312h906q28 0 49 -10t35 -27t21 -42t9 -55q1 -10 1 -20q0 -21 -3 -44q-4 -34 -12 -71t-19 -77t-25 -80t-30 -80t-34 -77t-36 -72t-35 -65t-33 -55t-31 -43t-27 -28t-20 -10l-126 -10 q34 -12 58 -26t38 -32t18 -44t-1 -63t-21 -87t-41 -116t-61 -151t-82 -193q-12 -26 -31 -42t-42 -25t-49 -13t-48 -6h-944q-20 10 -33 19t-23 23zM492 424h336q14 0 31 14t33 36t32 50t29 57t22 58t12 53q1 10 1 19q0 12 -2 22q-4 17 -18 21l-338 4z" />
<glyph unicode="c" horiz-adv-x="1140" d="M-2 153q-1 7 -1 15q0 20 4 47q5 37 21 91t45 128t69 174t93 228t121 290h320q-76 -184 -133 -321t-92 -229t-46 -139t7 -51h524q6 -2 9 -7t4 -11t0 -12t-1 -10q-18 -42 -32 -75t-25 -59t-21 -46t-18 -34t-15 -23t-15 -14t-16 -7t-16 -2h-738q-20 12 -33 27t-15 40z M484 1438q32 74 52 120t31 73t15 37l4 10q12 14 25 26t27 20t30 14t36 10h672q10 0 18 -5t14 -13t9 -17q2 -5 2 -10q0 -3 -1 -7q-28 -66 -48 -113t-37 -75t-32 -40t-31 -8l-468 2l6 -24h-324z" />
<glyph unicode="d" horiz-adv-x="1340" d="M0 92l438 1034h318l-300 -728l296 16q38 6 75 21t73 37t69 51t65 63t60 73t52 80t45 84t37 87t26 88t15 86q4 30 4 59q0 12 -1 23q-2 40 -11 76t-25 67t-41 57t-58 44t-75 28h-504l134 310h454q82 -8 147 -33t115 -63t86 -88t59 -109t32 -125q8 -59 8 -123v-14 q-1 -71 -14 -145t-35 -148t-53 -148t-71 -143t-86 -134t-99 -122t-111 -104t-121 -82t-129 -56t-134 -25z" />
<glyph unicode="e" horiz-adv-x="1240" d="M0 134l418 992h864l-132 -312l-516 4l-158 -384l518 -2l-146 -346h-808zM546 1438l124 312h866l-126 -312h-864z" />
<glyph unicode="f" horiz-adv-x="1240" d="M0 134l420 992h870l-140 -312l-516 4l-300 -732h-294zM540 1438l130 312h866l-124 -312h-872z" />
<glyph unicode="g" horiz-adv-x="1460" d="M-7 271q1 45 16 106t49 143l256 604h402l-284 -674l434 -2q18 0 34 11t31 31t26 44t18 50t10 51t0 44t-12 31t-25 12l-168 6l98 232h510l-158 -382q-34 -84 -61 -149t-49 -115t-41 -87t-38 -62t-38 -40t-41 -24t-48 -11t-58 -2l-514 -2q-44 4 -87 6t-83 8t-73 17t-57 30 t-37 49q-12 28 -12 69v6zM434 1438q28 64 52 119t49 97t51 67t56 27h1072l-124 -304h-752l-8 -6h-396z" />
<glyph unicode="h" horiz-adv-x="1560" d="M0 148l406 978h774l256 624h324l38 -46l-668 -1618h-382l292 712h-390l-296 -712h-306zM534 1438l128 312h382l-126 -312h-384z" />
<glyph unicode="i" horiz-adv-x="760" d="M0 86l436 1036h346l-430 -1036h-352zM560 1432l128 318h354l-124 -318h-358z" />
<glyph unicode="j" horiz-adv-x="940" d="M0 86l128 312h172l308 724h352l-314 -750q-18 -52 -39 -92t-44 -69t-48 -50t-52 -34t-56 -21t-59 -12t-62 -6t-66 -2h-220zM732 1432l128 318h356l-126 -318h-358z" />
<glyph unicode="k" horiz-adv-x="1580" d="M0 90l434 1032h594q28 -2 53 -17t50 -43t52 -73t56 -106t63 -140t75 -177t89 -216t108 -260h-344l-342 688l-226 -8l-282 -684zM564 1432l124 318l294 -10l-4 -86q14 16 28 28t34 20t48 14t72 9t105 5t146 3t196 1h255l-290 -310z" />
<glyph unicode="l" horiz-adv-x="1120" d="M0 86l422 1036h362l-288 -700h788l-142 -336h-1142zM552 1424l134 326h356l-132 -326h-358z" />
<glyph unicode="m" horiz-adv-x="2340" d="M0 86l430 1034h378l-440 -1034h-368zM552 1428l136 322l1662 -2q34 0 70 -5t65 -22t47 -48q16 -28 16 -71v-10l-624 -1506h-384l540 1304q4 16 -4 28t-24 19t-36 11t-38 4h-280l-18 -20h-390q4 12 -17 15t-69 3h-266l-10 -18zM754 86l438 1034h372l-438 -1034h-372z" />
<glyph unicode="n" horiz-adv-x="1540" d="M0 86l430 1034h380l-426 -1032zM552 1430l134 316h892h17q26 0 54 -4q37 -6 66 -22t47 -47q16 -28 16 -73v-10l-626 -1504h-400l532 1286q2 28 1 42t-9 21t-26 8t-50 1h-260l-8 -14h-380z" />
<glyph unicode="o" horiz-adv-x="1180" d="M-12 386v19q0 33 5 69q7 46 25 94l226 556h136h136l-178 -480q-16 -61 -16 -103v-9q2 -44 18 -74t44 -50t62 -36q46 -2 92 -3t92 -3q40 4 72 13t56 22t43 28t33 33t25 38t20 40t17 40l16 40l214 526q25 65 25 112q0 50 -21 87q-20 35 -53 56t-73 35q-20 2 -39 2t-37 1 t-36 0t-36 -3q-22 0 -36 -2t-28 -5t-27 -8t-31 -15l-374 -2q14 20 31 46t40 54t50 57t61 56t74 52t87 43t100 28t115 10h246q48 0 92 -10t81 -29t67 -46t52 -61t36 -73t17 -82q1 -13 1 -26q0 -31 -5 -64q-7 -47 -25 -95l-264 -696q-18 -48 -45 -94t-60 -89t-73 -81t-83 -71 t-91 -59t-97 -44t-99 -28t-98 -10h-246q-48 0 -92 10t-81 28t-66 45t-50 60t-33 71t-14 80z" />
<glyph unicode="p" horiz-adv-x="1420" d="M0 150l402 970h620q6 4 19 20t29 38t31 49t29 54t24 54t12 48t-4 34t-22 15h-608l128 316l922 2l84 -92q-28 -72 -58 -149t-61 -154t-62 -152t-61 -142t-58 -123t-54 -98t-49 -67t-43 -27h-596l-272 -660h-286q-10 4 -20 12t-18 18t-15 19t-13 15z" />
<glyph unicode="q" horiz-adv-x="1180" d="M-12 387v19q0 34 5 70q7 46 25 94l228 554h135h135l-178 -480q-16 -61 -16 -103v-9q2 -44 18 -74t44 -49t64 -37q46 -2 92 -3t92 -3q18 2 32 6t26 10t23 12t23 10l-78 110l174 132l56 -88q6 16 13 32t13 30l214 528q25 65 25 112q0 50 -21 86q-20 34 -53 56t-73 36 q-22 0 -41 1t-36 1h-35t-38 -2q-20 0 -35 -2t-28 -5t-27 -8t-30 -15l-376 -2q14 20 31 46t40 54t51 57t61 56t73 52t87 43t101 28t116 10h244q50 0 94 -10t81 -29t67 -46t52 -61t36 -73t17 -82q1 -13 1 -26q0 -31 -5 -64q-7 -47 -25 -97l-264 -694q-12 -34 -30 -68t-40 -66 t-47 -63t-51 -59l72 -98l-178 -122l-64 82q-74 -46 -152 -65t-158 -19h-244q-50 0 -94 10t-81 28t-66 45t-50 60t-33 71t-14 81z" />
<glyph unicode="r" horiz-adv-x="1380" d="M0 154l410 972h658q8 -2 21 10t29 34t31 49t29 56t24 58t14 51t0 37t-18 15h-658l122 314h990l78 -84q-4 -18 -17 -61t-33 -99t-45 -122t-55 -132t-61 -128t-63 -109t-63 -76t-59 -31l-128 -16q40 -14 69 -29t47 -35t24 -48q3 -15 3 -34q0 -16 -2 -35q-5 -41 -22 -97 t-45 -132t-68 -174t-92 -222h-442l280 670h-328l-280 -670h-298q-10 4 -18 13t-14 18t-10 19t-10 18z" />
<glyph unicode="s" horiz-adv-x="1260" d="M-140 152l96 228h640h20q36 0 73 5q47 7 89 21t78 34t61 45t38 55q11 24 11 51q0 6 -1 12q-3 33 -25 69t-64 72q-32 24 -58 43t-49 35t-43 31t-39 30t-37 30t-37 33t-40 38t-45 44q-32 28 -55 73t-34 101t-11 118t14 123t42 117t72 98t104 67t140 25h634l-126 -312h-398 q-26 -2 -49 -8t-42 -16t-33 -23t-22 -29t-11 -33t2 -36t19 -38t36 -37l340 -266q60 -58 98 -120t54 -125q13 -53 14 -106q0 -10 -1 -20q-3 -63 -23 -122t-56 -115t-85 -104t-111 -87t-132 -67h-964z" />
<glyph unicode="t" horiz-adv-x="980" d="M0 86l432 1040h358l-436 -1040h-354zM242 1438l124 312h962l-134 -312h-952z" />
<glyph unicode="u" horiz-adv-x="1540" d="M6 246l368 878h358q-56 -138 -100 -242t-75 -181t-49 -130t-26 -87t-5 -53t14 -28t31 -10t48 -3l248 2l560 1354h416l-694 -1660l-892 2q-34 0 -71 5t-67 22t-48 48q-16 28 -16 73v10zM512 1436l120 310h356l-120 -310h-356z" />
<glyph unicode="v" horiz-adv-x="1320" d="M0 1748h366l50 -310h-352zM110 1124h352l38 -284l718 904l360 4l-1332 -1662z" />
<glyph unicode="w" horiz-adv-x="1740" d="M0 142l412 986h314l-270 -636l532 516l274 -612l564 1354h294l40 -52l-668 -1610l-352 -2l-196 490l-526 -490l-370 2zM554 1438l124 312h300l-134 -312h-290z" />
<glyph unicode="x" horiz-adv-x="1940" d="M0 86l908 846l-94 194h292l682 624h372l-856 -782l392 -882h-412l-268 604l-654 -604h-362zM534 1744h412l134 -306h-390z" />
<glyph unicode="y" horiz-adv-x="1400" d="M0 1750h418l140 -312h-414zM34 86l344 838l-86 202h280l684 624h386l-878 -820l-348 -844h-382z" />
<glyph unicode="z" horiz-adv-x="1200" d="M0 134l796 992h428l-530 -692h652l-144 -348h-1154zM298 1438l126 310h1040l-126 -310h-1040z" />
<glyph unicode="{" horiz-adv-x="1094" d="M0 1166q38 2 74 15t70 33t66 49t63 63t61 73t59 81t58 86t57 89t57 89t59 86t61 80t64 72t67 61t70 47t75 31t81 13q-74 -38 -137 -99t-116 -135t-98 -155t-86 -161t-79 -155t-77 -133t-79 -97t-86 -47q30 -20 38 -62t0 -100t-26 -130t-40 -151t-43 -162t-34 -164 t-13 -157t18 -140q-32 18 -55 44t-37 57t-22 68t-10 76t1 82t9 87t13 89t16 89t16 88t12 85t8 78t0 70t-12 61t-25 50t-40 36t-58 20z" />
<glyph unicode="|" horiz-adv-x="1338" d="M0 86l848 2048h428l-848 -2048h-428z" />
<glyph unicode="}" horiz-adv-x="1094" d="M0 86q74 38 136 99t115 134t99 155t87 162t79 154t77 133t79 97t86 48q-30 20 -38 61t0 100t26 130t40 150t43 162t34 165t13 158t-18 140q32 -18 55 -44t37 -58t22 -68t10 -76t-1 -82t-9 -86t-14 -89l-16 -90t-15 -88t-12 -84t-8 -79t0 -71t11 -61t24 -49t41 -35t59 -20 q-40 -2 -75 -15t-69 -34t-66 -49t-63 -62t-61 -73t-59 -81t-58 -87t-58 -89l-58 -88t-59 -86t-60 -81t-63 -72t-67 -61t-70 -48t-75 -31t-81 -11z" />
<glyph unicode="~" horiz-adv-x="1064" d="M0 1778q24 44 46 80t42 66t39 55t39 46t42 37t49 28t58 22t71 16q28 0 47 -7t34 -20t27 -29t24 -33t25 -34t32 -32t44 -26t61 -15q56 2 102 15t85 38t75 59t72 76q-8 -44 -25 -83t-40 -72t-50 -61t-57 -51t-60 -39t-60 -25t-57 -12t-49 1q-40 -6 -70 -1t-51 17t-36 28 t-27 34t-24 35t-28 31t-35 22t-49 6q-24 0 -44 -2t-37 -6t-32 -11t-31 -16t-32 -22t-34 -30t-40 -38t-46 -47z" />
<glyph unicode="&#xa1;" horiz-adv-x="950" d="M0 86l664 1600l328 2l-662 -1602h-330zM722 1828l124 300l328 4l-124 -302z" />
<glyph unicode="&#xa2;" horiz-adv-x="1842" d="M4 169q-4 31 3 76t28 112t55 158t84 214t116 280t150 357h394q-94 -226 -165 -395t-113 -281t-56 -170t6 -66h120l550 1326h242l-546 -1324h282q8 -2 11 -9t4 -14t0 -15t-1 -12q-22 -50 -39 -91t-31 -74t-26 -57t-22 -41t-19 -28t-18 -18t-19 -9t-22 -2h-908 q-24 14 -40 33t-20 50zM604 1750q40 92 64 149t38 90t18 45l4 12q18 18 33 32t32 25t37 19t44 12h828q12 0 22 -7t17 -16t11 -21t2 -20q-34 -82 -59 -139t-45 -93t-39 -50t-39 -10l-154 2h-242h-182l10 -28z" />
<glyph unicode="&#xa3;" horiz-adv-x="1656" d="M0 86l520 1276l824 -2l-132 -320l-380 -2l-222 -538h968l-174 -414h-1404zM678 1734l166 398h436l-160 -398h-442z" />
<glyph unicode="&#xa4;" horiz-adv-x="2126" d="M-40 96l76 214q-22 46 -29 93t-6 94t13 93t30 90l278 686h168h166l-220 -594q-10 -40 -15 -75t-4 -63t7 -50t16 -41t24 -33t31 -27t36 -24t41 -21q56 -2 113 -4t113 -4q50 6 89 17t69 26t53 35t41 42t31 46t24 49t21 50t22 49l262 650q16 42 23 77t7 66t-6 56t-18 46 t-29 38t-37 31t-43 25t-47 19q-26 0 -49 2t-45 2t-44 -1t-46 -5q-26 0 -44 -1t-34 -5t-33 -11t-39 -17l-462 -2l134 160l-22 256l224 -80q72 40 160 65t194 25h302q76 0 141 -20t117 -56l312 52l-156 -272q18 -68 13 -146t-35 -160l-326 -858q-8 -22 -21 -46t-30 -50 t-36 -54t-40 -55t-43 -53t-43 -50t-41 -45t-38 -39l64 -236l-242 122q-42 -22 -82 -38t-80 -26t-82 -14t-84 -4h-304q-38 0 -67 4t-55 12t-50 21t-48 31z" />
<glyph unicode="&#xa5;" horiz-adv-x="1770" d="M0 952l106 164h360l-108 250h344l844 768h476l-1082 -1008l504 -2l-100 -172h-476l-356 -866h-470l370 866h-412zM0 2132h514l174 -382h-510z" />
<glyph unicode="&#xa6;" horiz-adv-x="1338" d="M0 86l848 2048h428l-848 -2048h-428z" />
<glyph unicode="&#xa7;" horiz-adv-x="1516" d="M-19 325q-5 77 21 173l196 18q-12 -66 -7 -113t27 -75q44 -54 160 -54q56 0 105 14t91 40t71 58t45 68q10 26 10 50t-10 46q-18 40 -80 103t-168 153q-56 46 -96 84t-60 64q-22 26 -35 58t-19 68q-4 36 1 75t21 79q22 50 57 95t83 85q48 42 104 70t118 44q-28 38 -43 71 t-19 65q-10 62 20 130q56 136 206 236q76 50 160 76t174 26q102 0 173 -24t107 -72q38 -50 44 -120t-22 -162l-196 -18q12 58 7 98t-25 62t-56 34t-88 12q-106 0 -190 -48t-108 -108q-12 -24 -12 -48t12 -44q16 -34 76 -91t164 -135q64 -50 106 -87t64 -61q26 -30 41 -63 t21 -65q4 -34 -1 -71t-21 -75q-26 -60 -67 -110t-99 -92q-32 -24 -85 -49t-125 -49q28 -32 44 -68t20 -74q12 -76 -24 -162q-20 -48 -53 -94t-77 -88t-96 -74t-112 -56q-120 -44 -236 -44q-102 0 -172 27t-108 81q-34 54 -39 131zM435 1190q-5 -32 1 -62q6 -28 42 -68 t102 -90q54 -42 101 -81t83 -73q50 18 90 42t70 50t51 52t31 50q12 30 11 62t-17 64t-58 77t-114 99q-56 44 -96 81t-66 63q-48 -24 -84 -48t-58 -46q-22 -26 -40 -52t-30 -56q-14 -32 -19 -64z" />
<glyph unicode="&#xa8;" horiz-adv-x="986" d="M30 1860q2 36 20 76q20 42 52 78t70 62t80 42t82 16t68 -16t41 -42t12 -62t-21 -78q-18 -40 -50 -76t-71 -62t-81 -42t-82 -16q-38 0 -66 16t-42 42t-12 62zM513 1860q1 36 21 76q18 42 50 78t71 62t81 42t82 16q38 0 66 -16t42 -42t12 -62t-20 -78q-20 -40 -52 -76 t-70 -62t-80 -42t-82 -16t-67 16t-41 42t-13 62z" />
<glyph unicode="&#xa9;" horiz-adv-x="1910" d="M0 1108q0 88 19 172t53 161t84 145t111 127t134 105t155 79t171 50t183 17t183 -17t171 -50t155 -79t135 -105t111 -127t84 -145t53 -161t18 -172t-18 -172t-53 -161t-84 -146t-111 -127t-135 -104t-155 -79t-171 -50t-183 -17t-183 17t-171 50t-155 79t-134 104 t-111 127t-84 146t-53 161t-19 172zM309 555q3 -19 12 -30t25 -21h554q14 0 25 7t23 29t28 60t42 100q0 4 1 8t0 9t-3 9t-6 4h-394q-12 4 -4 40t34 104t69 171t101 241h-242q-50 -122 -90 -218t-70 -171l-52 -130t-34 -96t-17 -69t-2 -47zM676 1520h244l-6 18l350 -2 q14 -2 25 7t23 30t27 56t37 85q2 6 -1 13t-7 13t-10 10t-14 4h-504q-14 -4 -26 -8t-23 -11t-20 -15t-19 -20l-3 -7t-11 -27t-23 -55z" />
<glyph unicode="&#xaa;" horiz-adv-x="790" d="M-140 1276l354 534h194l-212 -306l18 -34h174l152 500l-328 2l66 162l432 -2l44 -46v-64l-196 -748z" />
<glyph unicode="&#xab;" horiz-adv-x="982" d="M0 942l602 420l-374 -420l10 -426zM334 958l602 418l-374 -418l8 -428z" />
<glyph unicode="&#xac;" horiz-adv-x="1514" d="M0 528l228 294h171h135h105h79t59 -1t44 -1h32h26h25t28 -1t36 -1h49h68h90h117h150l-228 -290h-181h-145h-113h-85h-62h-45h-32h-24h-22h-25h-32h-44h-62h-85h-112h-145z" />
<glyph unicode="&#xad;" horiz-adv-x="1514" d="M0 528l228 294h171h135h105h79t59 -1t44 -1h32h26h25t28 -1t36 -1h49h68h90h117h150l-228 -290h-181h-145h-113h-85h-62h-45h-32h-24h-22h-25h-32h-44h-62h-85h-112h-145z" />
<glyph unicode="&#xae;" horiz-adv-x="1910" d="M0 1108q0 88 18 172t53 161t84 145t111 127t135 105t155 79t171 50t183 17t183 -17t171 -50t155 -79t134 -105t111 -127t85 -145t53 -161t18 -172t-18 -172t-53 -161t-85 -146t-111 -127t-134 -104t-155 -79t-171 -50t-183 -17t-183 17t-171 50t-155 79t-135 104 t-111 127t-84 146t-53 161t-18 172zM292 602q2 -6 6 -12t8 -13t9 -12t11 -9h204l192 458h222l-190 -458h300q36 86 63 152t47 118t31 90t15 66t0 48t-16 33t-33 23t-47 20l88 10q18 2 39 22t43 52t44 74t42 87t37 90t31 84t22 68t12 41l-54 58h-676l-82 -214h448 q10 0 13 -10t0 -26t-10 -35t-16 -39t-20 -39t-21 -33t-19 -23t-15 -7h-450z" />
<glyph unicode="&#xaf;" horiz-adv-x="1514" d="M0 1838l228 296h171t135 -1t105 -1h79h59h44h32t26 -1t25 -1h28h36h49h68t90 -1t117 -1h150l-228 -290h-181h-145h-113h-85h-62h-45h-32h-24h-22h-25h-32h-44h-62h-85h-112h-145z" />
<glyph unicode="&#xb0;" horiz-adv-x="660" d="M40 1748q0 50 24 108q22 58 65 108t95 88t110 60t114 22t97 -22t62 -60t22 -88t-23 -108t-66 -108t-95 -88t-111 -60t-114 -22t-96 22t-62 60t-22 88zM162 1794q0 -30 13 -52t36 -35t57 -13q32 0 67 13t66 35t55 52t38 64t14 64t-12 52t-36 34t-58 12q-32 0 -67 -12 t-65 -34t-55 -52t-39 -64t-14 -64z" />
<glyph unicode="&#xb1;" horiz-adv-x="1952" d="M0 86l228 294h171h135h105h79t59 -1t44 -1h32h26h25t28 -1t36 -1h49h68h90h117h150l-228 -290h-181h-145h-113h-85h-62h-45h-32h-24h-22h-25h-32h-44h-62h-85h-112h-145zM420 940l228 294h420l290 416h282l-282 -420h502l-226 -290h-470l-298 -442h-284l310 442h-472z " />
<glyph unicode="&#xb2;" horiz-adv-x="710" d="M0 1308l404 504h220l-270 -352h330l-72 -178h-588zM152 1970q16 28 40 53t54 45t62 35t62 21q20 6 56 10t75 5t77 -2t66 -9q18 -6 31 -13t20 -22t4 -44t-17 -79h-198q8 8 8 13t-6 9t-17 6t-25 2t-29 -2t-30 -6t-29 -9t-24 -13h-180z" />
<glyph unicode="&#xb3;" horiz-adv-x="762" d="M0 1300l68 162l220 -2q4 0 11 7t16 19t18 26t16 30l14 32t9 30t1 25t-7 17h-220l62 146h224q6 0 14 8t16 20t16 27t15 31t12 32t6 29t-1 22t-10 13h-220l66 160l320 -2q30 0 43 -18t15 -49t-7 -70t-23 -80t-32 -81t-36 -71t-34 -50t-24 -19l-64 -6q16 -6 29 -13t20 -16 t9 -23t-1 -32t-11 -44t-21 -60t-31 -78t-42 -98q-6 -14 -16 -22t-22 -13t-25 -7t-25 -2h-338q-12 4 -18 9t-12 11z" />
<glyph unicode="&#xb4;" horiz-adv-x="706" d="M0 1750l580 420l94 -150z" />
<glyph unicode="&#xb5;" horiz-adv-x="1564" d="M0 96l604 1464l280 -2l-182 -444q-26 -60 -38 -97t-17 -62t-6 -41t-1 -34q-2 -36 9 -64t33 -48q22 -22 53 -32t71 -10q42 0 88 13t88 35q40 20 70 52t58 70q4 8 10 15t11 14t11 15t13 19t14 25l16 32t20 41t23 53l184 448l280 2l-464 -1120l-276 -2l62 146 q-22 -22 -45 -35t-45 -23t-42 -16t-36 -14q-22 -12 -40 -17t-36 -7t-36 -2h-42q-42 0 -76 9t-60 25q-18 12 -34 39t-30 67l-216 -524z" />
<glyph unicode="&#xb6;" horiz-adv-x="2532" d="M0 86l530 1278h440l-534 -1278h-436zM298 1750l152 384h1962l-166 -384h-298l-696 -1664h-434l688 1664h-1208z" />
<glyph unicode="&#xb7;" horiz-adv-x="660" d="M40 1013q0 51 24 107q22 58 65 108t95 88t110 60t114 22t97 -22t62 -60t22 -88t-23 -108q-24 -56 -66 -107t-95 -89t-111 -60t-114 -22t-96 22t-62 60t-22 89z" />
<glyph unicode="&#xb8;" horiz-adv-x="420" d="M0 0l180 426h220l-180 -426h-220z" />
<glyph unicode="&#xb9;" horiz-adv-x="578" d="M0 1252l232 548h182l-228 -548h-186zM226 1968l138 166h188l-60 -168z" />
<glyph unicode="&#xba;" horiz-adv-x="660" d="M40 1748q0 50 24 108q22 58 65 108t95 88t110 60t114 22t97 -22t62 -60t22 -88t-23 -108t-66 -108t-95 -88t-111 -60t-114 -22t-96 22t-62 60t-22 88zM162 1794q0 -30 13 -52t36 -35t57 -13q32 0 67 13t66 35t55 52t38 64t14 64t-12 52t-36 34t-58 12q-32 0 -67 -12 t-65 -34t-55 -52t-39 -64t-14 -64z" />
<glyph unicode="&#xbb;" horiz-adv-x="982" d="M0 516l374 420l-8 426l236 -426zM332 530l376 420l-10 426l238 -426z" />
<glyph unicode="&#xbc;" horiz-adv-x="2886" d="M0 86l2256 2036l494 10l-2312 -2046h-438zM564 1198l232 550h182l-228 -550h-186zM790 1914l138 166h188l-60 -168zM1628 470l318 2l-156 -378h202l152 378l92 -2l68 176l-90 -2l132 306l-20 26h-172l-136 -332l-314 2zM1770 810l68 166h142l-62 -166h-148z" />
<glyph unicode="&#xbd;" horiz-adv-x="2886" d="M0 86l2256 2036l494 10l-2312 -2046h-438zM564 1198l232 550h182l-228 -550h-186zM790 1914l138 166h188l-60 -168zM1686 128l422 528h230l-284 -368h348l-76 -186h-616zM1844 822h174q8 8 19 14t25 9t29 4t30 1t28 -3t23 -6t15 -9t5 -12l206 2q4 20 6 37t-2 33t-15 29 t-31 25q-42 24 -95 36t-109 12t-110 -11t-98 -35q-20 -12 -36 -25t-28 -28t-21 -33t-15 -40z" />
<glyph unicode="&#xbe;" horiz-adv-x="2886" d="M0 86l2256 2036l494 10l-2312 -2046h-438zM492 1224l68 166h228q4 0 12 7t17 19t18 27t17 32t14 33t9 30t2 26t-9 18h-226l64 150h230q6 0 15 8t17 20t17 28t16 33t12 33t6 30t-2 23t-11 13h-226l68 164h330q32 0 46 -19t15 -51t-7 -72t-23 -83t-34 -84t-38 -73t-35 -51 t-24 -21l-68 -4q18 -6 31 -14t21 -18t10 -23t-1 -33t-11 -46t-22 -61t-33 -81t-43 -102q-6 -14 -16 -22t-22 -13t-26 -7t-26 -4h-350q-12 6 -19 11t-11 11zM1628 470l318 2l-156 -378h202l152 378l92 -2l68 176l-90 -2l132 306l-20 26h-172l-136 -332l-314 2zM1770 810 l68 166h142l-62 -166h-148z" />
<glyph unicode="&#xbf;" horiz-adv-x="1840" d="M0 198q36 90 73 185l74 190t75 186t75 173t72 152t67 122t61 82t53 32l552 6l116 268l266 -6q12 -6 24 -16t23 -21t20 -22t15 -21l-226 -528q-10 -16 -19 -30t-16 -24t-15 -18t-16 -14t-18 -11t-24 -9t-31 -7t-39 -7h-368q-10 -6 -26 -24t-34 -45t-38 -61t-37 -68 t-28 -66t-15 -58t4 -43t28 -19h746l-154 -388l-1136 -2zM1258 1809q0 43 20 91t55 91t79 74t93 50t97 19q46 0 80 -19t52 -50t19 -74t-19 -91t-56 -91t-80 -74t-93 -50t-97 -19q-46 0 -80 19t-52 50t-18 74z" />
<glyph unicode="&#xc0;" d="M-282 90l846 1034h462l-504 -592l44 -68h412l364 972l-784 2l160 312l1024 -4l108 -86v-126l-466 -1448zM996 2002l464 -270l-252 422z" />
<glyph unicode="&#xc1;" d="M-282 90l846 1034h462l-504 -592l44 -68h412l364 972l-784 2l160 312l1024 -4l108 -86v-126l-466 -1448zM912 1752l580 422l96 -150z" />
<glyph unicode="&#xc2;" d="M-282 90l846 1034h462l-504 -592l44 -68h412l364 972l-784 2l160 312l1024 -4l108 -86v-126l-466 -1448zM846 1750l606 422l240 -422l-338 194z" />
<glyph unicode="&#xc3;" d="M-282 90l846 1034h462l-504 -592l44 -68h412l364 972l-784 2l160 312l1024 -4l108 -86v-126l-466 -1448zM808 1782q26 42 48 79t42 67t39 55t39 46t42 37t49 28t58 21t71 17q28 0 48 -8t34 -20t26 -28t24 -33t26 -34t32 -32t44 -26t60 -15q58 0 103 14t85 38t75 59t73 77 q-10 -44 -27 -83t-40 -73t-50 -62t-57 -50t-60 -38t-60 -25t-57 -12t-49 1q-40 -6 -69 -1t-51 16t-37 28t-27 34t-24 35t-27 31t-35 21t-50 6q-24 0 -43 -1t-36 -5t-33 -11t-31 -17t-31 -23t-35 -30t-41 -38t-48 -45z" />
<glyph unicode="&#xc4;" d="M-282 90l846 1034h462l-504 -592l44 -68h412l364 972l-784 2l160 312l1024 -4l108 -86v-126l-466 -1448zM924 1870q2 36 20 76q20 40 52 76t70 63t80 42t82 15t68 -15t41 -42t12 -63t-21 -76q-18 -40 -50 -76t-71 -63t-81 -42t-80 -15q-40 0 -68 15t-42 42t-12 63z M1407 1870q1 36 21 76q18 40 50 76t71 63t81 42t82 15t67 -15t41 -42t12 -63t-20 -76q-20 -40 -51 -76t-70 -63t-81 -42t-82 -15t-67 15t-41 42t-13 63z" />
<glyph unicode="&#xc5;" d="M-282 90l846 1034h462l-504 -592l44 -68h412l364 972l-784 2l160 312l1024 -4l108 -86v-126l-466 -1448zM1095 1870q1 36 21 76q18 40 50 76t70 63t81 42t81 15q40 0 68 -15t42 -42t12 -63t-20 -76q-20 -40 -52 -76t-70 -63t-80 -42t-82 -15t-68 15t-41 42t-12 63z M1197 1905q-1 -19 6 -33t22 -22t35 -8t43 8t43 22t37 33t27 39q10 22 11 41t-7 33t-22 22t-36 8q-20 0 -42 -8t-43 -22t-37 -33t-26 -41q-10 -20 -11 -39z" />
<glyph unicode="&#xc6;" horiz-adv-x="2600" d="M-282 90l846 1274h462l-504 -728l44 -84h412l388 1202l-808 -2l160 382h1188l-124 -388l-126 -392l-120 -376l-164 -514l-120 -378zM1252 86h456l126 382l-462 -4zM1536 978h456l126 382l-462 -6zM1782 1746l466 -4l126 392h-468z" />
<glyph unicode="&#xc7;" horiz-adv-x="1520" d="M9 642q-1 24 9 63t30 96t53 138t79 191t106 252l396 2q-48 -114 -81 -194t-56 -133t-35 -83t-17 -45t-3 -18t8 -2t16 4t20 1h646q8 -2 12 -8t4 -14t-1 -15t-1 -11q-22 -52 -39 -93t-31 -73t-26 -56t-22 -41t-19 -29t-18 -18t-19 -9t-22 -3h-906q-26 16 -44 28t-28 29 t-11 41zM18 282l86 -150l602 422zM452 1768q40 90 64 148t37 90t18 45l5 13q18 16 33 31t32 26t37 18t44 11h828q12 0 22 -6t17 -16t11 -21t2 -21q-34 -82 -59 -139t-45 -92t-39 -50t-39 -11l-578 4l10 -30h-400z" />
<glyph unicode="&#xc8;" horiz-adv-x="1460" d="M0 134l408 990l1060 4l-124 -312l-598 4l-160 -386h598l-140 -348h-994zM536 1442l136 306h1060l-128 -302zM1006 2022l210 150l252 -422z" />
<glyph unicode="&#xc9;" horiz-adv-x="1460" d="M0 134l408 990l1060 4l-124 -312l-598 4l-160 -386h598l-140 -348h-994zM536 1442l136 306h1060l-128 -302zM912 1752l580 422l96 -150z" />
<glyph unicode="&#xca;" horiz-adv-x="1460" d="M0 134l408 990l1060 4l-124 -312l-598 4l-160 -386h598l-140 -348h-994zM536 1442l136 306h1060l-128 -302zM754 1750l606 422l238 -422l-336 194z" />
<glyph unicode="&#xcb;" horiz-adv-x="1460" d="M0 134l408 990l1060 4l-124 -312l-598 4l-160 -386h598l-140 -348h-994zM536 1442l136 306h1060l-128 -302zM817 1870q1 36 21 76t51 76t70 63t81 42t82 15t67 -15t41 -42t12 -63t-20 -76q-20 -40 -51 -76t-70 -63t-81 -42t-82 -15t-67 15t-41 42t-13 63zM1301 1870 q1 36 21 76q18 40 50 76t70 63t81 42t81 15q40 0 68 -15t42 -42t12 -63t-22 -76q-18 -40 -50 -76t-70 -63t-80 -42t-82 -15t-68 15t-41 42t-12 63z" />
<glyph unicode="&#xcc;" horiz-adv-x="1000" d="M0 86l536 1274h426l-530 -1274h-432zM598 1982l212 150l252 -422z" />
<glyph unicode="&#xcd;" horiz-adv-x="1000" d="M0 86l536 1274h426l-530 -1274h-432zM522 1710l580 420l94 -150z" />
<glyph unicode="&#xce;" horiz-adv-x="1000" d="M0 86l536 1274h426l-530 -1274h-432zM398 1708l606 420l240 -420l-338 192z" />
<glyph unicode="&#xcf;" horiz-adv-x="1000" d="M0 86l536 1274h426l-530 -1274h-432zM491 1855q1 35 21 77q18 40 50 76t70 62t81 42t81 16q40 0 68 -16t42 -42t12 -62t-22 -76q-18 -42 -50 -77t-70 -62t-80 -42t-82 -15t-68 15t-41 42t-12 62zM974 1855q2 35 20 77q20 40 51 76t70 62t81 42t82 16t67 -16t41 -42 t13 -62t-21 -76q-18 -42 -50 -77t-71 -62t-81 -42t-82 -15q-38 0 -66 15t-42 42t-12 62z" />
<glyph unicode="&#xd0;" horiz-adv-x="1800" d="M0 92l538 1274l848 6l-148 -354h-454l-222 -548l364 20q48 8 93 26t89 46t86 63t80 77t73 90t65 98t55 104t45 108t32 108t18 106t4 101t-13 93t-31 83t-50 70t-71 53t-93 34h-620l164 384h560q100 -12 180 -43t142 -78t106 -108t72 -133t40 -154t10 -169t-17 -178 t-43 -183t-66 -182t-87 -176t-106 -165t-122 -149t-137 -128t-149 -101t-158 -69t-167 -32z" />
<glyph unicode="&#xd1;" horiz-adv-x="1690" d="M0 86l368 894h468l-364 -892zM518 1362l164 390h1100q22 0 44 -1t43 -4t42 -10t39 -17t33 -25t25 -34t15 -44t3 -57l-606 -1474h-494l494 1206q2 32 1 50t-11 26t-32 10t-62 2h-322l-8 -18h-468zM908 1768q26 42 48 78t42 67t39 56t39 45t42 36t48 29t58 22t70 15 q30 0 49 -7t34 -19t27 -28t24 -34t25 -35t32 -31t44 -25t61 -15q56 0 102 14t85 38t75 59t72 77q-8 -44 -25 -83t-40 -73t-50 -62t-57 -50t-60 -38t-60 -26t-57 -13t-49 1q-40 -4 -70 1t-51 16t-36 28t-28 34t-25 35t-27 31t-35 21t-48 6q-24 0 -44 -2t-37 -6t-32 -10 t-31 -16t-32 -23t-34 -30t-40 -38t-48 -45z" />
<glyph unicode="&#xd2;" d="M11 388q1 42 13 88t34 94l272 554h135h135l-216 -480q-24 -68 -25 -112t13 -74t40 -49t60 -37q10 0 28 -1t39 -2t45 -2t49 -3t49 -3t45 -2t39 -2t30 -1q60 4 107 30t83 63t64 80t48 81l230 530q32 68 34 117t-14 83t-48 56t-70 34q-10 0 -25 1t-33 2t-37 2t-39 2t-39 1 h-36h-31h-24q-20 0 -35 -2t-29 -5t-28 -8t-32 -15l-374 -2q14 20 34 46t44 54t54 57t66 56t78 52t91 43t103 28t116 10l360 -6q48 -2 91 -13t78 -30t62 -46t46 -60t29 -72t11 -82t-9 -90t-30 -95l-294 -700q-20 -48 -50 -95t-67 -90t-80 -82t-90 -72t-97 -59t-101 -44 t-102 -27t-99 -7l-386 10q-48 0 -91 11t-78 30t-62 46t-46 59t-29 70t-9 80zM1060 2002l212 152l252 -422z" />
<glyph unicode="&#xd3;" d="M11 388q1 42 13 88t34 94l272 554h135h135l-216 -480q-24 -68 -25 -112t13 -74t40 -49t60 -37q10 0 28 -1t39 -2t45 -2t49 -3t49 -3t45 -2t39 -2t30 -1q60 4 107 30t83 63t64 80t48 81l230 530q32 68 34 117t-14 83t-48 56t-70 34q-10 0 -25 1t-33 2t-37 2t-39 2t-39 1 h-36h-31h-24q-20 0 -35 -2t-29 -5t-28 -8t-32 -15l-374 -2q14 20 34 46t44 54t54 57t66 56t78 52t91 43t103 28t116 10l360 -6q48 -2 91 -13t78 -30t62 -46t46 -60t29 -72t11 -82t-9 -90t-30 -95l-294 -700q-20 -48 -50 -95t-67 -90t-80 -82t-90 -72t-97 -59t-101 -44 t-102 -27t-99 -7l-386 10q-48 0 -91 11t-78 30t-62 46t-46 59t-29 70t-9 80zM842 1730l580 422l94 -150z" />
<glyph unicode="&#xd4;" d="M11 388q1 42 13 88t34 94l272 554h135h135l-216 -480q-24 -68 -25 -112t13 -74t40 -49t60 -37q10 0 28 -1t39 -2t45 -2t49 -3t49 -3t45 -2t39 -2t30 -1q60 4 107 30t83 63t64 80t48 81l230 530q32 68 34 117t-14 83t-48 56t-70 34q-10 0 -25 1t-33 2t-37 2t-39 2t-39 1 h-36h-31h-24q-20 0 -35 -2t-29 -5t-28 -8t-32 -15l-374 -2q14 20 34 46t44 54t54 57t66 56t78 52t91 43t103 28t116 10l360 -6q48 -2 91 -13t78 -30t62 -46t46 -60t29 -72t11 -82t-9 -90t-30 -95l-294 -700q-20 -48 -50 -95t-67 -90t-80 -82t-90 -72t-97 -59t-101 -44 t-102 -27t-99 -7l-386 10q-48 0 -91 11t-78 30t-62 46t-46 59t-29 70t-9 80zM768 1694l606 420l240 -420l-338 192z" />
<glyph unicode="&#xd5;" d="M11 388q1 42 13 88t34 94l272 554h135h135l-216 -480q-24 -68 -25 -112t13 -74t40 -49t60 -37q10 0 28 -1t39 -2t45 -2t49 -3t49 -3t45 -2t39 -2t30 -1q60 4 107 30t83 63t64 80t48 81l230 530q32 68 34 117t-14 83t-48 56t-70 34q-10 0 -25 1t-33 2t-37 2t-39 2t-39 1 h-36h-31h-24q-20 0 -35 -2t-29 -5t-28 -8t-32 -15l-374 -2q14 20 34 46t44 54t54 57t66 56t78 52t91 43t103 28t116 10l360 -6q48 -2 91 -13t78 -30t62 -46t46 -60t29 -72t11 -82t-9 -90t-30 -95l-294 -700q-20 -48 -50 -95t-67 -90t-80 -82t-90 -72t-97 -59t-101 -44 t-102 -27t-99 -7l-386 10q-48 0 -91 11t-78 30t-62 46t-46 59t-29 70t-9 80zM816 1768q26 42 47 78t41 67t39 56t40 45t43 36t48 29t58 22t70 15q28 0 48 -7t35 -19t27 -28t24 -34t25 -35t32 -31t44 -25t61 -15q56 0 102 14t85 38t75 59t72 77q-8 -44 -25 -83t-40 -73 t-51 -62t-57 -50t-60 -38t-60 -26t-56 -13t-49 1q-42 -4 -71 1t-50 16t-36 28t-28 34t-25 35t-27 31t-35 21t-48 6q-24 0 -44 -2t-37 -6t-32 -10t-31 -16t-32 -23t-34 -30t-40 -38t-48 -45z" />
<glyph unicode="&#xd6;" d="M11 388q1 42 13 88t34 94l272 554h135h135l-216 -480q-24 -68 -25 -112t13 -74t40 -49t60 -37q10 0 28 -1t39 -2t45 -2t49 -3t49 -3t45 -2t39 -2t30 -1q60 4 107 30t83 63t64 80t48 81l230 530q32 68 34 117t-14 83t-48 56t-70 34q-10 0 -25 1t-33 2t-37 2t-39 2t-39 1 h-36h-31h-24q-20 0 -35 -2t-29 -5t-28 -8t-32 -15l-374 -2q14 20 34 46t44 54t54 57t66 56t78 52t91 43t103 28t116 10l360 -6q48 -2 91 -13t78 -30t62 -46t46 -60t29 -72t11 -82t-9 -90t-30 -95l-294 -700q-20 -48 -50 -95t-67 -90t-80 -82t-90 -72t-97 -59t-101 -44 t-102 -27t-99 -7l-386 10q-48 0 -91 11t-78 30t-62 46t-46 59t-29 70t-9 80zM867 1870q1 36 21 76q18 40 50 76t71 63t81 42t82 15q38 0 66 -15t42 -42t12 -63t-20 -76q-20 -40 -51 -76t-70 -63t-81 -42t-82 -15t-67 15t-41 42t-13 63zM1350 1870q2 36 20 76q20 40 52 76 t70 63t80 42t82 15t68 -15t41 -42t12 -63t-21 -76q-18 -40 -50 -76t-70 -63t-80 -42t-82 -15t-68 15t-42 42t-12 63z" />
<glyph unicode="&#xd7;" horiz-adv-x="1400" d="M0 86l694 646l-72 150h224l522 476h284l-656 -598l302 -674h-316l-204 462l-502 -462h-276zM408 1354h314l104 -234h-298z" />
<glyph unicode="&#xd8;" d="M2 452q-2 52 7 109t33 115l276 680h167h165l-218 -588q-6 -22 -9 -40t-7 -36q-8 -20 -10 -41t2 -41t13 -37t25 -31l216 -122l130 8q36 4 66 14t56 24t48 31t41 38t36 45t33 50t32 53t32 57l262 644q8 20 15 36t12 29t7 24t3 22t-1 23t-5 26t-8 31t-11 41l-748 -1196 l-216 122l782 1196q-58 6 -104 7t-82 -4t-66 -15t-58 -24l-458 -2q16 24 37 55t49 66t62 70t75 69t90 63t106 51t123 35t142 13h300q60 0 113 -12t99 -36t83 -57t64 -74t43 -89t20 -101t-4 -110t-32 -117l-320 -850q-24 -60 -57 -117t-74 -109t-89 -99t-102 -87t-112 -72 t-118 -54t-121 -34t-121 -12h-300q-60 0 -113 12t-98 35t-81 55t-63 72t-42 87t-17 99z" />
<glyph unicode="&#xd9;" horiz-adv-x="1730" d="M8 284l300 696h440q-40 -96 -71 -169t-52 -127t-33 -92t-14 -62t4 -38t22 -20t40 -8t58 -2h308l536 1286l512 2l-700 -1664l-1100 2q-22 0 -44 1t-44 5t-43 11t-40 17t-34 25t-25 35t-15 45t-5 57zM476 1366l150 384l438 -2l-148 -382h-440zM1040 1984l210 150l252 -422z " />
<glyph unicode="&#xda;" horiz-adv-x="1730" d="M8 284l300 696h440q-40 -96 -71 -169t-52 -127t-33 -92t-14 -62t4 -38t22 -20t40 -8t58 -2h308l536 1286l512 2l-700 -1664l-1100 2q-22 0 -44 1t-44 5t-43 11t-40 17t-34 25t-25 35t-15 45t-5 57zM476 1366l150 384l438 -2l-148 -382h-440zM1076 1712l580 422l94 -150z " />
<glyph unicode="&#xdb;" horiz-adv-x="1730" d="M8 284l300 696h440q-40 -96 -71 -169t-52 -127t-33 -92t-14 -62t4 -38t22 -20t40 -8t58 -2h308l536 1286l512 2l-700 -1664l-1100 2q-22 0 -44 1t-44 5t-43 11t-40 17t-34 25t-25 35t-15 45t-5 57zM476 1366l150 384l438 -2l-148 -382h-440zM888 1750l608 420l238 -420 l-336 192z" />
<glyph unicode="&#xdc;" horiz-adv-x="1730" d="M8 284l300 696h440q-40 -96 -71 -169t-52 -127t-33 -92t-14 -62t4 -38t22 -20t40 -8t58 -2h308l536 1286l512 2l-700 -1664l-1100 2q-22 0 -44 1t-44 5t-43 11t-40 17t-34 25t-25 35t-15 45t-5 57zM476 1366l150 384l438 -2l-148 -382h-440zM924 1870q2 36 20 76 q20 40 52 76t70 63t80 42t82 15t68 -15t41 -42t12 -63t-21 -76q-18 -40 -50 -76t-71 -63t-81 -42t-80 -15q-40 0 -68 15t-42 42t-12 63zM1407 1870q1 36 21 76q18 40 50 76t71 63t81 42t82 15t67 -15t41 -42t12 -63t-20 -76q-20 -40 -51 -76t-70 -63t-81 -42t-82 -15t-67 15 t-41 42t-13 63z" />
<glyph unicode="&#xdd;" horiz-adv-x="1770" d="M0 2132h514l174 -382h-510zM42 86l424 1030l-108 250h344l844 768h476l-1082 -1008l-430 -1040h-468zM686 1750l580 420l94 -150z" />
<glyph unicode="&#xde;" horiz-adv-x="1690" d="M0 166l338 812h760q10 6 26 24t34 45t38 61t37 68t28 66t15 58t-4 43t-28 19h-746l316 772h470l-156 -384l660 2l104 -112q-36 -90 -73 -185l-74 -190t-75 -186t-75 -173t-72 -152t-67 -122t-61 -82t-53 -32h-732l-178 -432h-350q-12 6 -24 16t-23 21t-20 22t-15 21z" />
<glyph unicode="&#xdf;" horiz-adv-x="1640" d="M52 138l460 1228h754q16 0 35 16t38 41t37 57t33 66t25 67t12 61t-5 48t-27 28h-744l108 262q12 46 23 70t28 36t44 13t73 1l796 2q36 0 63 -10t45 -28t30 -43t16 -56t3 -67t-7 -74t-16 -79t-23 -82t-29 -82t-34 -80t-37 -75t-37 -67t-36 -57t-34 -44t-30 -29t-24 -11 l-156 -12q42 -14 72 -29t48 -34t24 -46t0 -67t-24 -96t-49 -134t-75 -181t-100 -235q-14 -32 -38 -51t-53 -31t-60 -17t-59 -7h-632l-92 -224h-276q-14 6 -24 12t-18 11t-15 12t-13 17zM696 724h312q18 0 38 17t41 45t40 62t35 70t27 71t15 65t-2 50t-22 26l-312 8z" />
<glyph unicode="&#xe0;" horiz-adv-x="1270" d="M-282 88l680 834h372l-404 -476l34 -56h332l292 782l-630 2l130 250l824 -2l84 -70v-100l-374 -1166zM746 1628l374 -218l-204 340z" />
<glyph unicode="&#xe1;" horiz-adv-x="1290" d="M-282 88l674 826h368l-402 -472l36 -54h326l292 774l-626 2l128 248l816 -4l86 -68v-100l-372 -1154zM670 1414l462 336l74 -120z" />
<glyph unicode="&#xe2;" horiz-adv-x="1290" d="M-282 88l674 826h370l-402 -472l34 -54h328l290 774l-624 4l128 248l818 -4l84 -68v-100l-372 -1156zM618 1414l484 336l190 -336l-268 154z" />
<glyph unicode="&#xe3;" horiz-adv-x="1290" d="M-282 88l688 842h376l-410 -480l36 -56h334l296 788l-638 4l132 252l832 -2l86 -70v-102l-378 -1178zM604 1464q20 36 38 65t34 54t32 45t32 37t34 30t40 23t47 18t57 12q24 0 40 -6t28 -16t21 -23t19 -27t21 -28t26 -26t36 -20t49 -12q46 0 83 11t69 31t61 48t59 62 q-6 -36 -20 -67t-33 -59t-41 -51t-46 -40t-49 -30t-49 -21t-46 -11t-40 1q-34 -4 -57 0t-40 13t-30 22t-23 28t-20 29t-22 25t-28 17t-40 6q-20 0 -35 -2t-30 -5t-27 -8t-24 -13t-26 -19t-29 -25t-32 -30t-39 -38z" />
<glyph unicode="&#xe4;" horiz-adv-x="1290" d="M-282 88l684 838h374l-408 -478l36 -56h332l294 786l-634 2l130 252l830 -4l86 -70v-100l-378 -1172zM693 1529q1 29 17 61q16 34 41 62t56 50t65 34t68 12q30 0 53 -12t34 -34t10 -50t-17 -62q-16 -32 -41 -61t-56 -51t-65 -34t-66 -12q-34 0 -56 12t-33 34t-10 51z M1084 1529q2 29 16 61q16 34 42 62t57 50t65 34t66 12t54 -12t33 -34t10 -50t-15 -62q-16 -32 -42 -61t-57 -51t-65 -34t-66 -12t-55 12t-34 34t-9 51z" />
<glyph unicode="&#xe5;" horiz-adv-x="1290" d="M-282 88l684 838h374l-408 -478l36 -56h332l294 786l-634 2l130 252l830 -4l86 -70v-100l-378 -1172zM831 1529q1 29 17 61q16 34 41 62t56 50t66 34t67 12q30 0 53 -12t34 -34t10 -50t-17 -62q-16 -32 -41 -61t-56 -51t-65 -34t-68 -12q-30 0 -53 12t-34 34t-10 51z M913 1557q-1 -15 5 -27t18 -18t28 -6q18 0 36 6t34 18t30 27t22 33q8 16 9 32t-5 27t-18 18t-28 7q-18 0 -36 -7t-34 -18t-30 -27t-22 -32q-8 -18 -9 -33z" />
<glyph unicode="&#xe6;" horiz-adv-x="2320" d="M-282 88l686 1036h376l-410 -592l36 -68h334l316 976l-656 -2l130 310h964l-102 -316l-100 -316l-98 -306l-134 -418l-98 -306zM962 86h372l102 310l-376 -4zM1194 810h370l102 310l-374 -4zM1392 1432l380 -2l102 318h-380z" />
<glyph unicode="&#xe7;" horiz-adv-x="1000" d="M0 540q0 20 7 51t23 76t43 111t63 153l84 203h318q-38 -90 -65 -154t-45 -107t-28 -67t-14 -36t-2 -15t7 -1t12 4t15 0h518q6 -2 9 -7t4 -11t0 -12t-3 -8q-16 -42 -30 -75t-25 -59t-20 -45t-17 -33t-16 -23t-15 -14t-15 -7t-18 -2h-726q-20 12 -35 22t-22 23t-7 33z M6 252l68 -120l482 336zM354 1442q32 72 51 118t30 72t14 36l3 10q14 14 26 25t26 20t30 15t36 10h662q10 0 18 -5t14 -13t8 -17t2 -17q-28 -64 -48 -110t-36 -75t-31 -40t-31 -9l-462 4l6 -24h-318z" />
<glyph unicode="&#xe8;" horiz-adv-x="1200" d="M0 124l326 788l844 4l-100 -248l-474 4l-128 -310l476 2l-112 -278h-792zM428 1166l108 244h844l-102 -242zM802 1628l168 120l200 -336z" />
<glyph unicode="&#xe9;" horiz-adv-x="1200" d="M0 124l326 788l844 4l-100 -248l-474 4l-128 -310l476 2l-112 -278h-792zM428 1166l108 244h844l-102 -242zM728 1414l462 336l74 -120z" />
<glyph unicode="&#xea;" horiz-adv-x="1200" d="M0 124l326 790l846 2l-100 -246l-476 2l-128 -308h476l-112 -278h-792zM428 1168l108 244h846l-102 -242zM600 1414l486 336l190 -336l-268 154z" />
<glyph unicode="&#xeb;" horiz-adv-x="1200" d="M0 124l330 802l858 2l-100 -250l-484 2l-130 -312h484l-114 -282h-804zM434 1182l110 248h856l-104 -244zM661 1529q1 29 17 61q16 34 41 62t57 50t66 34t66 12t54 -12t33 -34t10 -50t-17 -62q-14 -32 -40 -61t-57 -51t-65 -34t-66 -12t-55 12t-34 34t-10 51zM1052 1529 q2 29 16 61q16 34 42 62t57 50t65 34t66 12t54 -12t33 -34t10 -50t-15 -62q-16 -32 -42 -61t-57 -51t-65 -34t-66 -12t-55 12t-34 34t-9 51z" />
<glyph unicode="&#xec;" horiz-adv-x="740" d="M0 86l436 1036h346l-430 -1036h-352zM452 1628l172 122l204 -342z" />
<glyph unicode="&#xed;" horiz-adv-x="740" d="M0 86l436 1036h346l-430 -1036h-352zM424 1406l472 342l76 -122z" />
<glyph unicode="&#xee;" horiz-adv-x="740" d="M0 86l438 1036h344l-430 -1036h-352zM324 1406l494 342l194 -342l-274 156z" />
<glyph unicode="&#xef;" horiz-adv-x="740" d="M0 86l438 1038h346l-432 -1038h-352zM400 1527q2 29 16 63q16 32 42 61t57 51t66 35t67 13t55 -13t34 -35t9 -51t-16 -61q-16 -34 -42 -63t-57 -51t-66 -34t-67 -12t-55 12t-34 34t-9 51zM794 1527q2 29 16 63q16 32 42 61t57 51t65 35t68 13q32 0 54 -13t33 -35t10 -51 t-17 -61q-14 -34 -40 -63t-58 -51t-66 -34t-66 -12t-55 12t-34 34t-9 51z" />
<glyph unicode="&#xf0;" horiz-adv-x="1420" d="M0 92l438 1032l688 6l-122 -288h-366l-182 -444l296 16q38 6 75 21t73 37t69 51t65 63t60 73t52 80t45 84t37 87t26 88t15 86t3 82t-11 76t-25 67t-41 56t-58 44t-75 27h-502l132 312h454q82 -8 147 -33t115 -63t86 -88t59 -109t32 -125t8 -137t-14 -145t-35 -148 t-54 -148t-71 -143t-85 -134t-99 -122t-111 -104t-121 -82t-129 -56t-134 -25z" />
<glyph unicode="&#xf1;" horiz-adv-x="1380" d="M0 86l302 732l382 -2l-298 -728zM424 1130l134 318h900q34 2 71 -3t66 -22t47 -49t16 -82l-498 -1206h-402l404 986v41t-8 22t-27 8t-51 3l-262 -2l-8 -14h-382zM742 1462q22 34 40 64t34 55t32 45t32 37t34 30t40 23t48 18t58 12q22 0 38 -6t28 -16t22 -23t20 -27 t21 -28t26 -26t36 -21t49 -11q46 0 84 11t70 31t61 48t59 64q-8 -38 -22 -69t-32 -59t-41 -51t-47 -41t-49 -31t-49 -21t-46 -10t-40 0q-34 -4 -58 0t-41 14t-29 23t-23 28t-20 29t-22 25t-29 17t-40 6q-18 0 -35 -2t-31 -5t-26 -9t-25 -14t-26 -18t-28 -24t-33 -31t-40 -37 z" />
<glyph unicode="&#xf2;" horiz-adv-x="1220" d="M-1 327q1 69 35 147l220 448h109h109l-176 -388q-18 -54 -19 -90t10 -60t32 -40t49 -30q10 0 24 -1t31 -1t36 -1t39 -3t40 -3t37 -2t31 -1h22q50 2 88 23t67 51t51 65t40 65l184 428q26 54 28 94t-11 67t-39 45t-56 28q-18 2 -47 3t-61 3t-61 2t-45 -2q-16 0 -28 -1 t-23 -4t-22 -7t-25 -12h-304q12 16 28 36t36 43t44 46t53 46t63 42t73 34t83 23t94 8l290 -6q78 -2 136 -34t88 -85t32 -124t-32 -151l-236 -562q-18 -40 -42 -78t-53 -73t-64 -66t-73 -58t-78 -48t-81 -35t-82 -22t-81 -6l-312 8q-78 2 -136 34t-87 84t-28 121zM842 1630 l172 122l202 -340z" />
<glyph unicode="&#xf3;" horiz-adv-x="1220" d="M-1 328q1 70 35 146l220 448h109h109l-174 -388q-20 -54 -21 -90t10 -60t33 -40t48 -30h24t31 -1t37 -2t39 -2t39 -2t37 -2t31 -2t24 -1q48 4 86 24t68 50t52 65t38 67l186 428q26 54 28 94t-11 67t-39 45t-58 28q-16 0 -46 2t-61 3t-60 1h-45t-29 -1t-23 -4t-22 -8 t-26 -11l-302 -2q12 16 27 37t35 44t45 46t54 45t63 42t73 34t83 23t94 9l290 -6q78 -2 136 -34t88 -86t32 -124t-32 -150l-238 -564q-16 -40 -40 -78t-54 -73t-64 -66t-72 -58t-79 -48t-82 -35t-82 -22t-81 -6l-310 8q-80 2 -138 34t-87 84t-28 122zM668 1412l468 342 l76 -122z" />
<glyph unicode="&#xf4;" horiz-adv-x="1220" d="M0 332q0 70 36 150l222 456h112h112l-178 -396q-20 -54 -21 -91t10 -61t33 -40t50 -32h24t31 -1t37 -2l40 -2l40 -2t38 -2t32 -2t24 -1q50 4 88 25t68 51t53 65t39 69l190 434q26 56 28 96t-12 68t-40 46t-56 28q-18 2 -48 4t-63 3t-62 1t-45 -2q-16 0 -29 -1t-24 -4 t-22 -7t-27 -12h-308q12 16 28 37t37 44t46 47t54 46t64 42t74 35t84 24t95 9l296 -6q80 -2 138 -35t90 -87t33 -126t-33 -154l-240 -574q-18 -40 -42 -78t-55 -74t-66 -68t-73 -59t-80 -48t-84 -36t-83 -23t-81 -6l-318 8q-80 2 -139 35t-88 86t-29 123zM618 1404l500 348 l196 -348l-276 160z" />
<glyph unicode="&#xf5;" horiz-adv-x="1220" d="M0 332q0 70 36 150l222 456h112h112l-178 -396q-20 -54 -21 -91t10 -61t33 -40t50 -32h24t31 -1t37 -2l40 -2l40 -2t38 -2t32 -2t24 -1q50 4 88 25t68 51t53 65t39 69l190 434q26 56 28 96t-12 68t-40 46t-56 28q-18 2 -48 4t-63 3t-62 1t-45 -2q-16 0 -29 -1t-24 -4 t-22 -7t-27 -12h-308q12 16 28 37t37 44t46 47t54 46t64 42t74 35t84 24t95 9l296 -6q80 -2 138 -35t90 -87t33 -126t-33 -154l-240 -574q-18 -40 -42 -78t-55 -74t-66 -68t-73 -59t-80 -48t-84 -36t-83 -23t-81 -6l-318 8q-80 2 -139 35t-88 86t-29 123zM658 1466 q22 34 40 64t34 55t32 46t32 38t35 30t40 23t47 18t58 14q24 0 40 -7t28 -17t22 -23t20 -27t21 -28t26 -26t36 -21t51 -13q46 2 83 13t70 31t62 48t59 64q-8 -38 -22 -70t-32 -59t-41 -50t-47 -42t-49 -32t-49 -21t-47 -10t-41 2q-34 -4 -58 0t-41 13t-29 22t-23 28t-21 29 t-22 25t-28 18t-40 5q-20 0 -36 -1t-30 -5t-27 -9t-26 -13t-26 -19t-28 -25t-33 -31t-40 -37z" />
<glyph unicode="&#xf6;" horiz-adv-x="1220" d="M-1 329q1 69 37 147l218 450h111h109l-176 -390q-18 -54 -19 -90t10 -60t32 -40t49 -30q10 0 24 -1t31 -2t37 -2l40 -2t39 -2t36 -2t32 -1t23 -2q50 4 88 25t67 51t52 65t39 67l186 430q26 54 28 93t-11 67t-39 46t-56 28q-18 0 -48 2t-62 3t-61 2t-45 -1q-16 0 -28 -1 t-23 -4t-22 -7t-27 -12l-302 -2q10 18 26 38t36 43t45 46t54 46t63 42t73 34t83 23t94 8l292 -4q80 -2 137 -34t88 -86t32 -125t-31 -151l-238 -566q-18 -40 -42 -78t-54 -73t-65 -67t-73 -58t-78 -48t-82 -36t-83 -22t-81 -6l-312 8q-78 2 -136 34t-88 85t-29 122z M691 1529q1 29 17 63q16 32 41 61t57 51t66 35t66 13t54 -13t33 -35t10 -51t-17 -61q-14 -34 -40 -63t-57 -50t-65 -34t-66 -13q-34 0 -56 13t-33 34t-10 50zM1083 1529q1 29 17 63q14 32 40 61t57 51t65 35t68 13q32 0 54 -13t33 -35t10 -51t-17 -61q-14 -34 -40 -63 t-57 -50t-66 -34t-67 -13t-54 13t-33 34t-10 50z" />
<glyph unicode="&#xf7;" horiz-adv-x="1252" d="M0 528l136 306h1058l-128 -304zM195 206q1 36 21 76q18 40 50 76t71 63t81 42t82 15t67 -15t41 -42t12 -63t-20 -76q-20 -40 -51 -76t-70 -63t-81 -42t-82 -15t-67 15t-41 42t-13 63zM558 984q2 36 20 76q20 40 51 76t70 63t81 42t82 15t67 -15t41 -42t12 -63t-20 -76 q-20 -40 -51 -76t-70 -63t-81 -42t-82 -15t-67 15t-41 42t-12 63z" />
<glyph unicode="&#xf8;" horiz-adv-x="1220" d="M-12 387q-2 43 5 89t25 94l228 554h135h135l-178 -480q-4 -16 -7 -32t-5 -30q-8 -16 -10 -33t1 -33t11 -31t20 -25l178 -100l106 6q58 8 99 31t72 57t57 77t54 91l214 526q6 16 12 29t10 24t6 20t2 18t-1 19t-4 21t-7 26t-8 33l-612 -978l-178 100l640 978q-48 6 -85 6 t-66 -4t-54 -12t-47 -20l-376 -2q14 20 31 46t40 54t51 57t61 57t73 52t87 42t101 28t116 10h244q50 0 94 -10t81 -29t67 -46t52 -61t36 -73t17 -82t-4 -90t-25 -97l-264 -694q-18 -50 -45 -96t-60 -89t-73 -81t-84 -71t-91 -59t-96 -44t-99 -28t-100 -10h-244q-50 0 -94 10 t-81 28t-66 45t-50 60t-33 71t-14 81z" />
<glyph unicode="&#xf9;" horiz-adv-x="1440" d="M8 246l242 568h358q-32 -78 -57 -138t-42 -104t-27 -75t-12 -50t3 -30t18 -17t33 -7t46 -1h250l436 1046h416l-568 -1352l-894 2q-36 0 -73 5t-67 22t-48 49t-14 82zM388 1126l120 312h358l-120 -312h-358zM846 1628l170 122l206 -342z" />
<glyph unicode="&#xfa;" horiz-adv-x="1440" d="M8 246l242 568h358q-32 -78 -57 -138t-42 -104t-27 -75t-12 -50t3 -30t18 -17t33 -7t46 -1h250l436 1046h416l-568 -1352l-894 2q-36 0 -73 5t-67 22t-48 49t-14 82zM388 1126l120 312h358l-120 -312h-358zM876 1408l470 342l78 -122z" />
<glyph unicode="&#xfb;" horiz-adv-x="1440" d="M6 244l240 556h352q-32 -76 -57 -135t-42 -102t-26 -73t-12 -50t3 -30t18 -15t32 -7t46 -2h246l428 1026l408 2l-560 -1328l-876 2q-34 0 -71 5t-66 22t-47 48t-16 81zM380 1106l120 308l350 -2l-118 -306h-352zM708 1414l484 336l192 -336l-270 154z" />
<glyph unicode="&#xfc;" horiz-adv-x="1440" d="M8 246l240 564h358q-32 -78 -57 -137t-43 -103t-27 -75t-11 -50t3 -30t18 -16t33 -7t46 -2h248l434 1040l414 2l-566 -1346l-890 2q-34 0 -71 5t-67 22t-48 48t-14 83zM386 1120l120 312l356 -2l-120 -310h-356zM747 1529q1 29 17 61q16 34 42 62t57 50t65 34t66 12 t54 -12t33 -34t10 -50t-17 -62q-14 -32 -40 -61t-57 -51t-65 -34t-66 -12t-55 12t-34 34t-10 51zM1139 1529q1 29 17 61q14 34 40 62t57 50t65 34t66 12t55 -12t34 -34t9 -50t-16 -62q-16 -32 -42 -61t-57 -51t-65 -34t-66 -12t-54 12t-33 34t-10 51z" />
<glyph unicode="&#xfd;" horiz-adv-x="1400" d="M0 1750h418l140 -312h-414zM34 86l344 838l-86 202h278l686 624h386l-878 -818l-348 -846h-382zM558 1438l470 342l76 -122z" />
<glyph unicode="&#xfe;" horiz-adv-x="1280" d="M0 150l274 662h618q8 4 21 19t28 37t31 49t30 55t23 54t12 47t-3 34t-24 15h-606l256 628h382l-126 -312l538 2l84 -90q-28 -74 -58 -151t-61 -154t-62 -152t-61 -141t-58 -123t-54 -99t-50 -66t-42 -26h-596l-144 -352h-286q-10 4 -20 12t-18 18t-15 19t-13 15z" />
<glyph unicode="&#xff;" horiz-adv-x="400" d="M0 1436h418l140 -310h-412zM162 86l218 526l-88 202h280l684 624h388l-880 -820l-220 -532h-382zM491 1529q1 29 17 61q16 34 42 63t57 51t65 34t66 12t55 -12t34 -34t10 -51t-17 -63q-16 -32 -41 -61t-57 -51t-66 -35t-66 -13t-55 13t-34 35t-10 51zM884 1529 q2 29 16 61q16 34 42 63t57 51t65 34t68 12q32 0 54 -12t33 -34t10 -51t-17 -63q-14 -32 -40 -61t-58 -51t-66 -35t-66 -13t-54 13t-34 35t-10 51z" />
<glyph unicode="&#x152;" horiz-adv-x="2350" d="M-45 455q-3 53 7 110t34 115l276 686h168h168l-222 -594q-10 -40 -14 -75t-4 -63t6 -50t16 -41t24 -33t31 -27t36 -24t41 -21q56 -2 113 -4t115 -4q48 6 87 17t69 26t54 35t41 42t30 46t25 49t21 50t21 49l262 650q16 42 24 77t8 66t-7 56t-19 46t-29 38t-37 31t-42 25 t-46 19q-28 0 -51 2t-45 2t-44 -1t-46 -5q-24 0 -43 -1t-35 -5t-33 -11t-37 -17l-462 -2q16 24 37 55t49 66t62 71t76 70t91 64t107 52t124 35t142 13l878 -6l-154 -384l-162 -382l-152 -374l-222 -532l-174 -376l-746 6q-62 0 -116 12t-99 35t-82 56t-62 73t-40 87t-18 100 zM1118 86h682l154 382l-662 -6zM1514 994h644l156 382l-648 -8zM1828 1750h638l154 382l-638 2z" />
<glyph unicode="&#x153;" horiz-adv-x="1770" d="M-62 385q-2 43 6 89t28 94l224 556h135h135l-178 -482q-18 -66 -16 -111t18 -74t44 -49t64 -38q46 0 92 -2l92 -4q40 6 71 15t56 21t44 28t33 34t25 37t20 40t17 41l16 40l214 526q26 68 25 117t-21 83t-53 55t-73 35q-22 2 -40 3t-36 1t-36 -1t-38 -3q-20 0 -35 -1 t-28 -4t-26 -9t-31 -14l-374 -2q12 20 29 45t40 53t51 57t61 57t73 52t87 42t101 28t116 10l712 -4l-126 -312l-130 -308l-124 -304l-180 -432l-142 -304l-604 4q-50 0 -94 10t-80 29t-66 45t-50 59t-33 71t-15 81zM880 86h554l126 310l-538 -6zM1202 822h522l126 310 l-524 -6zM1456 1434l518 2l126 310h-518z" />
<glyph unicode="&#x178;" horiz-adv-x="1700" d="M0 1748h514l174 -382h-510zM200 86l266 646l-108 250h344l844 768h476l-1082 -1008l-270 -656h-470zM604 1860q2 36 20 76q20 42 52 78t70 62t80 42t82 16t68 -16t41 -42t12 -62t-21 -78q-18 -40 -50 -76t-70 -62t-81 -42t-81 -16q-40 0 -68 16t-42 42t-12 62zM1087 1860 q1 36 21 76q20 42 51 78t70 62t81 42t82 16t67 -16t41 -42t12 -62t-20 -78q-20 -40 -51 -76t-70 -62t-81 -42t-82 -16t-67 16t-41 42t-13 62z" />
<glyph unicode="&#x2000;" horiz-adv-x="1135" />
<glyph unicode="&#x2001;" horiz-adv-x="2270" />
<glyph unicode="&#x2002;" horiz-adv-x="1135" />
<glyph unicode="&#x2003;" horiz-adv-x="2270" />
<glyph unicode="&#x2004;" horiz-adv-x="756" />
<glyph unicode="&#x2005;" horiz-adv-x="567" />
<glyph unicode="&#x2006;" horiz-adv-x="378" />
<glyph unicode="&#x2007;" horiz-adv-x="378" />
<glyph unicode="&#x2008;" horiz-adv-x="283" />
<glyph unicode="&#x2009;" horiz-adv-x="454" />
<glyph unicode="&#x200a;" horiz-adv-x="126" />
<glyph unicode="&#x2010;" horiz-adv-x="1514" d="M0 528l228 294h171h135h105h79t59 -1t44 -1h32h26h25t28 -1t36 -1h49h68h90h117h150l-228 -290h-181h-145h-113h-85h-62h-45h-32h-24h-22h-25h-32h-44h-62h-85h-112h-145z" />
<glyph unicode="&#x2011;" horiz-adv-x="1514" d="M0 528l228 294h171h135h105h79t59 -1t44 -1h32h26h25t28 -1t36 -1h49h68h90h117h150l-228 -290h-181h-145h-113h-85h-62h-45h-32h-24h-22h-25h-32h-44h-62h-85h-112h-145z" />
<glyph unicode="&#x2012;" horiz-adv-x="1514" d="M0 528l228 294h171h135h105h79t59 -1t44 -1h32h26h25t28 -1t36 -1h49h68h90h117h150l-228 -290h-181h-145h-113h-85h-62h-45h-32h-24h-22h-25h-32h-44h-62h-85h-112h-145z" />
<glyph unicode="&#x2013;" horiz-adv-x="1096" d="M0 528l162 294h121.5h96h74.5h56t42 -1t31.5 -1h22.5h18h17.5t20 -1t26 -1h35h48h64h83h106.5l-162 -290h-128.5h-103h-80h-60.5h-44.5h-31.5h-22.5h-17.5h-15.5h-17.5h-23h-31.5h-44h-60h-79.5h-103z" />
<glyph unicode="&#x2014;" horiz-adv-x="2120" d="M0 528l324 294h242.5h192h149h112t84 -1t62.5 -1h45.5h37h35.5t39.5 -1t51 -1h70h96.5h127.5h166.5h213l-324 -290h-257h-206h-160.5h-120.5h-88h-64h-45.5h-34h-31h-35.5h-45.5h-62.5h-88h-121h-159.5h-205.5z" />
<glyph unicode="&#x2019;" horiz-adv-x="706" d="M0 1750l580 420l94 -150z" />
<glyph unicode="&#x201e;" horiz-adv-x="1910" d="M0 1116q0 88 18 172t53 160t84 145t111 127t135 105t155 79t171 50t183 18t183 -18t171 -50t155 -79t134 -105t111 -127t85 -145t53 -160t18 -172q0 -90 -18 -173t-53 -160t-85 -146t-111 -127t-134 -105t-155 -79t-171 -50t-183 -18t-183 18t-171 50t-155 79t-135 105 t-111 127t-84 146t-53 160t-18 173zM238 590l936 -2l262 1000v86l-60 60l-574 2l-92 -214l440 -2l-204 -670h-230l-24 46l282 410h-260z" />
<glyph unicode="&#x202f;" horiz-adv-x="454" />
<glyph unicode="&#x2039;" horiz-adv-x="632" d="M0 944l602 418l-374 -418l8 -428z" />
<glyph unicode="&#x203a;" horiz-adv-x="632" d="M0 516l374 420l-8 426l236 -426z" />
<glyph unicode="&#x205f;" horiz-adv-x="567" />
<glyph unicode="&#x2122;" horiz-adv-x="1816" d="M-24 382q-2 42 6 88t28 94l236 558l142 310q14 30 33 59t44 57t55 53t64 48t72 41t80 32t86 21t90 7h246h434l-124 -312l-132 -310l-124 -304l-180 -432l-142 -306h-328h-246q-50 0 -94 10t-81 29t-67 45t-51 59t-33 72t-14 81zM246 1122l142 310h342l-214 -310h-270z M341 586q-1 -56 17 -98t53 -66t83 -24h124q12 0 24 2l444 1042q4 10 -4 15t-22 7t-31 2h-29h-122q-32 0 -57 -3t-44 -8t-31 -11t-16 -12l-214 -310l-150 -418q-24 -62 -25 -118zM890 86h554l126 310l-538 -4zM1212 824h524l126 310l-526 -6zM1468 1438h518l126 312h-520z " />
<glyph unicode="&#x25fc;" horiz-adv-x="1750" d="M0 0v1750h1750v-1750h-1750z" />
</font>
</defs>
</svg>
